<svg width="1440" height="262" viewBox="0 0 1440 262" fill="none" xmlns="http://www.w3.org/2000/svg">
<g clip-path="url(#clip0_162:6233)">
<rect width="1440" height="260.66" transform="translate(0 0.644043)" fill="white"/>
<g clip-path="url(#clip1_162:6233)">
<path d="M1440 124.494L1432 89.744C1430.6 84.384 1426.22 84.654 1425.14 89.744L1417.58 122.524L1422.29 124.524C1423.29 124.984 1423 126.224 1421.84 126.224L1416.76 126.154L1398.37 206.154L1408.97 210.904C1410.17 211.604 1409.97 212.824 1408.43 212.674L1396.9 212.554L1385.72 261.194H1440V124.494Z" fill="#006F7A"/>
<path d="M1375.31 239.544L1368.72 239.484L1363.16 261.224H1410.48L1399.75 219.224H1396C1395.26 219.224 1395.21 218.634 1395.7 218.344L1399.03 216.434L1388.78 176.274C1387.99 173.514 1385.48 173.654 1384.86 176.274L1380.54 193.114L1383.24 194.114C1383.82 194.354 1383.64 194.984 1382.97 194.984H1380.07L1369.56 236.104L1375.62 238.544C1376.3 239.004 1376.17 239.644 1375.31 239.544Z" fill="#4DC27E"/>
<path d="M893.18 66.5241H1110C1098.46 58.3541 1088.33 53.1141 1081.69 55.1141C1078.48 56.1641 1075.69 55.5841 1074.1 52.8241C1061.7 33.6341 1046.93 32.0341 1037.48 39.4741C1036.68 40.0179 1035.75 40.353 1034.78 40.449C1033.82 40.545 1032.84 40.399 1031.95 40.0241C1021.66 35.4541 993.36 19.5141 979.06 38.4641C978.481 39.2372 977.647 39.7801 976.706 39.9961C975.765 40.2122 974.778 40.0874 973.92 39.6441C958.43 32.6441 944.4 38.5241 941.71 51.6441C941.23 53.1041 940.83 56.8641 935.71 55.8441C914.75 51.7241 893.18 66.5241 893.18 66.5241Z" fill="#F0FBFF"/>
<path d="M172 79.4541H545C525.14 65.4541 507.71 56.3941 496.29 59.8341C490.78 61.6441 485.93 60.6441 483.29 55.8941C461.95 22.8941 436.55 20.1241 420.29 32.8941C418.906 33.8244 417.314 34.398 415.654 34.5638C413.995 34.7295 412.321 34.4823 410.78 33.8441C393.08 25.9841 344.39 -1.45595 319.78 31.1541C318.64 32.6641 315.73 35.2341 310.93 33.2541C284.27 21.0741 260.15 31.2541 255.51 53.8641C254.69 56.3741 254 62.8641 245.17 61.0941C209.11 53.9941 172 79.4541 172 79.4541Z" fill="#F0FBFF"/>
<path d="M1188.36 120.464H1369C1359.38 113.654 1350.94 109.294 1345.41 110.954C1342.74 111.834 1340.41 111.344 1339.09 109.044C1328.76 93.0441 1316.46 91.7241 1308.58 97.9241C1307.91 98.375 1307.14 98.6531 1306.34 98.7333C1305.54 98.8136 1304.73 98.6936 1303.98 98.3841C1295.4 94.5741 1271.83 81.2941 1259.91 97.0841C1259.43 97.7287 1258.74 98.1826 1257.95 98.3656C1257.17 98.5486 1256.35 98.4489 1255.63 98.0841C1242.72 92.1741 1231.03 97.0841 1228.79 108.084C1228.39 109.294 1228.06 112.424 1223.79 111.584C1206.33 108.124 1188.36 120.464 1188.36 120.464Z" fill="#F0FBFF"/>
<path d="M971.97 100.714H922.15V261.304H971.97V100.714Z" fill="#EDF9FC"/>
<path d="M975.69 101.664H918.43V103.294H975.69V101.664Z" fill="#EDF9FC"/>
<path d="M974.15 124.224H919.98V125.844H974.15V124.224Z" fill="#EDF9FC"/>
<path d="M974.15 146.074H919.98V147.694H974.15V146.074Z" fill="#EDF9FC"/>
<path d="M974.15 167.914H919.98V169.534H974.15V167.914Z" fill="#EDF9FC"/>
<path d="M974.15 189.764H919.98V191.384H974.15V189.764Z" fill="#EDF9FC"/>
<path d="M974.15 211.604H919.98V213.224H974.15V211.604Z" fill="#EDF9FC"/>
<path d="M974.15 233.454H919.98V235.074H974.15V233.454Z" fill="#EDF9FC"/>
<path d="M977.59 97.2341H916.54V101.674H977.59V97.2341Z" fill="#EDF9FC"/>
<path opacity="0.29" d="M931.82 108.574H926.64V121.404H931.82V108.574Z" fill="#EDF9FC"/>
<path d="M943.4 108.574H938.22V121.404H943.4V108.574Z" fill="#EDF9FC"/>
<path d="M954.98 108.574H949.8V121.404H954.98V108.574Z" fill="#EDF9FC"/>
<path d="M966.55 108.574H961.37V121.404H966.55V108.574Z" fill="#EDF9FC"/>
<path d="M931.82 129.544H926.64V142.374H931.82V129.544Z" fill="#EDF9FC"/>
<path opacity="0.29" d="M943.4 129.544H938.22V142.374H943.4V129.544Z" fill="#EDF9FC"/>
<path d="M954.98 129.544H949.8V142.374H954.98V129.544Z" fill="#EDF9FC"/>
<path d="M966.55 129.544H961.37V142.374H966.55V129.544Z" fill="#EDF9FC"/>
<path d="M931.82 151.394H926.64V164.224H931.82V151.394Z" fill="#EDF9FC"/>
<path d="M943.4 151.394H938.22V164.224H943.4V151.394Z" fill="#EDF9FC"/>
<path d="M954.98 151.394H949.8V164.224H954.98V151.394Z" fill="#EDF9FC"/>
<path opacity="0.29" d="M966.55 151.394H961.37V164.224H966.55V151.394Z" fill="#EDF9FC"/>
<path d="M931.82 173.234H926.64V186.064H931.82V173.234Z" fill="#EDF9FC"/>
<path opacity="0.29" d="M943.4 173.234H938.22V186.064H943.4V173.234Z" fill="#EDF9FC"/>
<path opacity="0.29" d="M954.98 173.234H949.8V186.064H954.98V173.234Z" fill="#EDF9FC"/>
<path d="M966.55 173.234H961.37V186.064H966.55V173.234Z" fill="#EDF9FC"/>
<path opacity="0.29" d="M931.82 195.084H926.64V207.914H931.82V195.084Z" fill="#EDF9FC"/>
<path d="M943.4 195.084H938.22V207.914H943.4V195.084Z" fill="#EDF9FC"/>
<path d="M954.98 195.084H949.8V207.914H954.98V195.084Z" fill="#EDF9FC"/>
<path d="M966.55 195.084H961.37V207.914H966.55V195.084Z" fill="#EDF9FC"/>
<path d="M931.82 216.924H926.64V229.754H931.82V216.924Z" fill="#EDF9FC"/>
<path d="M943.4 216.924H938.22V229.754H943.4V216.924Z" fill="#EDF9FC"/>
<path opacity="0.29" d="M954.98 216.924H949.8V229.754H954.98V216.924Z" fill="#EDF9FC"/>
<path d="M966.55 216.924H961.37V229.754H966.55V216.924Z" fill="#EDF9FC"/>
<path d="M931.82 238.774H926.64V251.604H931.82V238.774Z" fill="#EDF9FC"/>
<path opacity="0.29" d="M943.4 238.774H938.22V251.604H943.4V238.774Z" fill="#EDF9FC"/>
<path d="M954.98 238.774H949.8V251.604H954.98V238.774Z" fill="#EDF9FC"/>
<path opacity="0.29" d="M966.55 238.774H961.37V251.604H966.55V238.774Z" fill="#EDF9FC"/>
<path d="M942.24 91.1141H925.3V99.4541H942.24V91.1141Z" fill="#EDF9FC"/>
<path d="M943.39 90.8741H924.15V92.3041H943.39V90.8741Z" fill="#EDF9FC"/>
<path d="M850.75 261.304H784.38V108.724L850.75 92.494V261.304Z" fill="#EDF9FC"/>
<path d="M787.3 106.034H781.47V261.294H787.3V106.034Z" fill="#EDF9FC"/>
<path d="M803.89 101.664H798.06V261.304H803.89V101.664Z" fill="#EDF9FC"/>
<path d="M820.48 97.1241H814.65V261.304H820.48V97.1241Z" fill="#EDF9FC"/>
<path d="M837.07 93.4141H831.24V261.304H837.07V93.4141Z" fill="#EDF9FC"/>
<path d="M853.66 89.4741H847.83V261.294H853.66V89.4741Z" fill="#EDF9FC"/>
<path opacity="0.29" d="M796.55 119.064H788.81V130.854H796.55V119.064Z" fill="#EDF9FC"/>
<path opacity="0.29" d="M813.14 119.064H805.4V130.854H813.14V119.064Z" fill="#EDF9FC"/>
<path d="M829.73 119.064H821.99V130.854H829.73V119.064Z" fill="#EDF9FC"/>
<path opacity="0.29" d="M846.32 119.064H838.58V130.854H846.32V119.064Z" fill="#EDF9FC"/>
<path d="M796.55 139.604H788.81V151.394H796.55V139.604Z" fill="#EDF9FC"/>
<path d="M813.14 139.604H805.4V151.394H813.14V139.604Z" fill="#EDF9FC"/>
<path opacity="0.29" d="M829.73 139.604H821.99V151.394H829.73V139.604Z" fill="#EDF9FC"/>
<path opacity="0.29" d="M846.32 139.604H838.58V151.394H846.32V139.604Z" fill="#EDF9FC"/>
<path opacity="0.29" d="M796.55 160.134H788.81V171.924H796.55V160.134Z" fill="#EDF9FC"/>
<path opacity="0.29" d="M813.14 160.134H805.4V171.924H813.14V160.134Z" fill="#EDF9FC"/>
<path opacity="0.29" d="M829.73 160.134H821.99V171.924H829.73V160.134Z" fill="#EDF9FC"/>
<path d="M846.32 160.134H838.58V171.924H846.32V160.134Z" fill="#EDF9FC"/>
<path opacity="0.29" d="M796.55 180.664H788.81V192.454H796.55V180.664Z" fill="#EDF9FC"/>
<path d="M813.14 180.664H805.4V192.454H813.14V180.664Z" fill="#EDF9FC"/>
<path opacity="0.29" d="M829.73 180.664H821.99V192.454H829.73V180.664Z" fill="#EDF9FC"/>
<path opacity="0.29" d="M846.32 180.664H838.58V192.454H846.32V180.664Z" fill="#EDF9FC"/>
<path opacity="0.29" d="M796.55 201.194H788.81V212.984H796.55V201.194Z" fill="#EDF9FC"/>
<path opacity="0.29" d="M813.14 201.194H805.4V212.984H813.14V201.194Z" fill="#EDF9FC"/>
<path d="M829.73 201.194H821.99V212.984H829.73V201.194Z" fill="#EDF9FC"/>
<path opacity="0.29" d="M846.32 201.194H838.58V212.984H846.32V201.194Z" fill="#EDF9FC"/>
<path d="M796.55 221.724H788.81V233.514H796.55V221.724Z" fill="#EDF9FC"/>
<path d="M813.14 221.724H805.4V233.514H813.14V221.724Z" fill="#EDF9FC"/>
<path opacity="0.29" d="M829.73 221.724H821.99V233.514H829.73V221.724Z" fill="#EDF9FC"/>
<path opacity="0.29" d="M846.32 221.724H838.58V233.514H846.32V221.724Z" fill="#EDF9FC"/>
<path opacity="0.29" d="M796.55 242.264H788.81V254.054H796.55V242.264Z" fill="#EDF9FC"/>
<path d="M813.14 242.264H805.4V254.054H813.14V242.264Z" fill="#EDF9FC"/>
<path opacity="0.29" d="M829.73 242.264H821.99V254.054H829.73V242.264Z" fill="#EDF9FC"/>
<path d="M846.32 242.264H838.58V254.054H846.32V242.264Z" fill="#EDF9FC"/>
<path d="M595.07 116.034V117.614H593.49V122.134H621.26V261.304H575.69V129.394V122.134V117.614H574.03V116.034H595.07Z" fill="#EDF9FC"/>
<path d="M711.73 179.254H672.7V261.304H711.73V179.254Z" fill="#EDF9FC"/>
<path d="M534.3 160.444H502.57V261.304H534.3V160.444Z" fill="#EDF9FC"/>
<path d="M562.6 181.454H528.02V261.304H562.6V181.454Z" fill="#EDF9FC"/>
<path d="M528.02 156.394H513.99V168.464H528.02V156.394Z" fill="#EDF9FC"/>
<path d="M567.25 180.144H530.39V183.094H567.25V180.144Z" fill="#EDF9FC"/>
<path d="M597.64 215.704H558.88V261.304H597.64V215.704Z" fill="#EDF9FC"/>
<path d="M465.12 178.614H433.59V261.304H465.12V178.614Z" fill="#EDF9FC"/>
<path d="M447.71 219.824H406.23V261.304H447.71V219.824Z" fill="#EDF9FC"/>
<path d="M386.5 213.044H360.55V261.304H386.5V213.044Z" fill="#EDF9FC"/>
<path d="M442.79 246.184H381.46V261.304H442.79V246.184Z" fill="#EDF9FC"/>
<path d="M368.49 254.734H337.06V261.304H368.49V254.734Z" fill="#EDF9FC"/>
<path d="M513.99 230.784H465.13V261.304H513.99V230.784Z" fill="#EDF9FC"/>
<path d="M684.57 248.154H608.46V261.304H684.57V248.154Z" fill="#EDF9FC"/>
<path d="M819.52 248.154H743.41V261.304H819.52V248.154Z" fill="#EDF9FC"/>
<path d="M681.61 209.554H652.68L640.45 254.734H681.61V209.554Z" fill="#EDF9FC"/>
<path d="M695.79 143.834H694.98V193.944H695.79V143.834Z" fill="#EDF9FC"/>
<path d="M700.08 160.784H699.01V190.354H700.08V160.784Z" fill="#EDF9FC"/>
<path d="M707.89 166.024H693.25V180.664H707.89V166.024Z" fill="#EDF9FC"/>
<path d="M710.17 164.894H690.78V166.204H710.17V164.894Z" fill="#EDF9FC"/>
<path d="M751.92 218.984H704.63V261.304H751.92V218.984Z" fill="#EDF9FC"/>
<path d="M773.26 172.384H742.88V254.044H773.26V172.384Z" fill="#EDF9FC"/>
<path d="M910.09 187.744H861.55V261.304H910.09V187.744Z" fill="#EDF9FC"/>
<path d="M901.67 234.194H846.32V261.304H901.67V234.194Z" fill="#EDF9FC"/>
<path d="M943.39 251.604H907.4V261.304H943.39V251.604Z" fill="#EDF9FC"/>
<path d="M1021.36 234.194H962.84V261.304H1021.36V234.194Z" fill="#EDF9FC"/>
<path d="M986.15 261.304H1058.97V163.234H986.15V261.304Z" fill="#EDF9FC"/>
<path d="M984.27 163.224H1063.21V159.464H984.27V163.224Z" fill="#EDF9FC"/>
<path d="M1023.74 169.134H1055.74V149.254H1023.74V169.134Z" fill="#EDF9FC"/>
<path d="M1007.92 161.344H1013.29V149.254H1007.92V161.344Z" fill="#EDF9FC"/>
<path d="M996.63 161.344H1002.54V149.254H996.63V161.344Z" fill="#EDF9FC"/>
<path d="M1109.02 261.304H1166.66V118.074H1109.02V261.304Z" fill="#EDF9FC"/>
<path d="M1107.39 119.654L1168.3 119.654V115.604H1107.39V119.654Z" fill="#EDF9FC"/>
<path d="M1110.96 129.674H1164.72V110.434H1110.96V129.674Z" fill="#EDF9FC"/>
<path d="M1139.31 123.584H1160.6V102.564H1139.31V123.584Z" fill="#EDF9FC"/>
<path d="M1148.29 108.484H1160.61V97.4141H1151.77L1148.29 108.484Z" fill="#EDF9FC"/>
<path d="M1154.45 112.884H1155.64V88.234H1154.45V112.884Z" fill="#EDF9FC"/>
<path d="M1154 86.954C1154.04 87.1586 1154.14 87.3466 1154.29 87.4957C1154.44 87.6447 1154.62 87.7486 1154.83 87.7949C1155.03 87.8412 1155.24 87.8279 1155.44 87.7567C1155.63 87.6856 1155.81 87.5594 1155.93 87.3934C1156.06 87.2273 1156.14 87.0283 1156.15 86.82C1156.17 86.6118 1156.13 86.4031 1156.03 86.2188C1155.93 86.0345 1155.78 85.8823 1155.6 85.7804C1155.42 85.6785 1155.21 85.6312 1155 85.644C1154.7 85.6888 1154.42 85.8508 1154.23 86.0955C1154.05 86.3403 1153.96 86.6484 1154 86.954Z" fill="#EDF9FC"/>
<path d="M1184.56 202.174H1158.77V261.304H1184.56V202.174Z" fill="#EDF9FC"/>
<path d="M1114.71 173.344H1085.29V261.304H1114.71V173.344Z" fill="#EDF9FC"/>
<path d="M1100.02 261.304H1058.58V214.264L1093.55 229.754L1100.02 261.304Z" fill="#EDF9FC"/>
<path d="M1239.37 235.754H1176.09V261.304H1239.37V235.754Z" fill="#EDF9FC"/>
<path d="M1252.76 159.314H1216V261.304H1252.76V159.314Z" fill="#EDF9FC"/>
<path d="M1305.06 254.524H1244.16V261.304H1305.06V254.524Z" fill="#EDF9FC"/>
<path d="M1254.44 157.444H1214.12V160.784H1254.44V157.444Z" fill="#EDF9FC"/>
<path d="M1247.84 143.054H1247.03V163.604H1247.84V143.054Z" fill="#EDF9FC"/>
<path d="M1242.46 145.654H1241.65V162.144H1242.46V145.654Z" fill="#EDF9FC"/>
<path d="M1266.37 207.734H1249.98V254.464H1273.36L1266.37 207.734Z" fill="#EDF9FC"/>
<path d="M346.56 177.634H315.03V260.324H346.56V177.634Z" fill="#EDF9FC"/>
<path d="M329.15 218.844H287.67V260.324H329.15V218.844Z" fill="#EDF9FC"/>
<path d="M250.2 115.204V116.784H248.63V121.304H276.39V260.474H230.83V128.564V121.304V116.784H229.17V115.204H250.2Z" fill="#EDF9FC"/>
<path d="M302.78 186.064H264.02V260.474H302.78V186.064Z" fill="#EDF9FC"/>
<path d="M235.95 219.094H182.44V260.574H235.95V219.094Z" fill="#EDF9FC"/>
<path d="M183.47 187.054H134.93V260.614H183.47V187.054Z" fill="#EDF9FC"/>
<path d="M366.78 230.784H305.45V261.024H366.78V230.784Z" fill="#EDF9FC"/>
<path d="M228.05 261.364H95.99V198.564L159.22 173.424L228.05 204.844V261.364Z" fill="#A9AFBA"/>
<path d="M53.24 172.214L-9.95001 208.444V261.364H148.05L159.22 172.214H53.24Z" fill="#A9AFBA"/>
<path d="M58.83 172.214H53.24L-9.95001 208.444V261.364H90.38L90.39 200.774L58.83 172.214Z" fill="#7E8697"/>
<g style="mix-blend-mode:multiply" opacity="0.55">
<path d="M196.43 193.494C190.35 191.334 184.36 189.024 178.35 186.654C175.35 185.454 172.19 184.464 169.18 183.124C166.52 181.934 163.97 180.474 161.36 179.124C160.55 178.704 159.73 178.294 158.9 177.924L158.76 177.854L158.56 177.774C158.21 177.634 157.86 177.494 157.51 177.374C156.189 176.89 154.827 176.525 153.44 176.284C153.24 176.284 151.98 176.114 152.58 176.164L151.78 176.104C151.05 176.104 150.32 176.034 149.59 176.024C148.11 176.024 146.59 176.024 145.14 176.164C142.14 176.354 139.14 176.684 136.19 176.764C132.73 176.854 129.26 176.764 125.81 176.764H104.31C100.79 176.764 97.31 176.764 93.76 176.764C90.84 176.764 87.9 176.514 84.98 176.764C84.34 176.764 83.7 176.884 83.06 176.984L82.51 177.104C82.19 177.194 81.86 177.274 81.51 177.374C80.8307 177.585 80.1631 177.832 79.51 178.114C79.38 178.174 78.59 178.604 78.95 178.384L78.25 178.814C75.48 180.604 72.85 182.644 70.05 184.364C64.3094 187.875 58.2692 190.87 52 193.314C48.8682 194.525 45.6736 195.566 42.43 196.434L-10.02 208.434V218.874H90.39L159.22 194.514L228.05 214.274V204.844L206.78 197.064C203.33 195.864 199.87 194.714 196.43 193.494Z" fill="#A9AFBA"/>
</g>
<path d="M111.14 198.644C115.28 197.324 119.46 196.174 123.58 194.744C126.05 193.894 128.5 193.004 130.95 192.084C133.4 191.164 135.95 190.394 138.32 189.294C138.94 189.004 139.56 188.704 140.18 188.384L140.71 188.114L140.99 187.954L144.12 186.234C145.5 185.484 146.89 184.734 148.31 184.074C148.67 183.904 149.04 183.744 149.39 183.564L149.6 183.454C152.3 181.984 155.19 180.154 158.21 179.564L159.21 172.284H53.21L-9.98004 203.984V209.824H90.7C96.8081 204.932 103.726 201.148 111.14 198.644Z" fill="#69686D"/>
<path d="M-9.94 203.904V209.744H90.7C93.4317 207.593 96.3123 205.638 99.32 203.894L-9.94 203.904Z" fill="#444248"/>
<path d="M228.05 238.724H90.38V261.364H228.05V238.724Z" fill="#7E8697"/>
<g style="mix-blend-mode:multiply" opacity="0.55">
<path d="M228.05 238.724H90.38V243.934H228.05V238.724Z" fill="#A9AFBA"/>
</g>
<path d="M228.05 238.724H90.38V241.234H228.05V238.724Z" fill="#444248"/>
<path d="M159.22 172.214L90.39 204.434V209.754L159.22 182.884L228.05 209.754V204.434L159.22 172.214Z" fill="#6E6E72"/>
<path d="M145.82 216.164H113.33V261.354H145.82V216.164Z" fill="#C6CAD1"/>
<path d="M144.09 218.344H115.07V261.364H144.09V218.344Z" fill="#47464C"/>
<path d="M142.63 220.294H116.52V261.354H142.63V220.294Z" fill="#66656A"/>
<path d="M205.1 216.164H172.61V261.354H205.1V216.164Z" fill="#C6CAD1"/>
<path d="M203.37 218.344H174.35V261.364H203.37V218.344Z" fill="#47464C"/>
<path d="M201.91 220.294H175.8V261.354H201.91V220.294Z" fill="#66656A"/>
<path d="M140.99 227.984H118.17V230.434H140.99V227.984Z" fill="#47464C"/>
<path d="M140.99 232.734H118.17V235.184H140.99V232.734Z" fill="#47464C"/>
<path d="M140.99 237.494H118.17V239.944H140.99V237.494Z" fill="#47464C"/>
<path d="M140.99 242.254H118.17V244.704H140.99V242.254Z" fill="#47464C"/>
<path d="M140.99 247.004H118.17V249.454H140.99V247.004Z" fill="#47464C"/>
<path d="M140.99 251.764H118.17V254.224H140.99V251.764Z" fill="#47464C"/>
<path d="M140.99 256.524H118.17V258.984H140.99V256.524Z" fill="#47464C"/>
<path d="M140.99 223.354H118.17V225.804H140.99V223.354Z" fill="#47464C"/>
<path d="M200.26 227.984H177.44V230.434H200.26V227.984Z" fill="#47464C"/>
<path d="M200.26 223.354H177.44V225.804H200.26V223.354Z" fill="#47464C"/>
<path d="M200.26 232.734H177.44V235.184H200.26V232.734Z" fill="#47464C"/>
<path d="M200.26 237.494H177.44V239.944H200.26V237.494Z" fill="#47464C"/>
<path d="M200.26 242.254H177.44V244.704H200.26V242.254Z" fill="#47464C"/>
<path d="M200.26 247.004H177.44V249.454H200.26V247.004Z" fill="#47464C"/>
<path d="M200.26 251.764H177.44V254.224H200.26V251.764Z" fill="#47464C"/>
<path d="M200.26 256.524H177.44V258.984H200.26V256.524Z" fill="#47464C"/>
<path d="M163.35 204.724C163.35 205.541 163.108 206.339 162.654 207.019C162.2 207.698 161.555 208.227 160.8 208.54C160.046 208.852 159.215 208.934 158.414 208.775C157.613 208.615 156.877 208.222 156.3 207.644C155.722 207.067 155.329 206.331 155.169 205.53C155.01 204.729 155.092 203.898 155.404 203.144C155.717 202.389 156.246 201.744 156.925 201.29C157.605 200.836 158.403 200.594 159.22 200.594C160.315 200.594 161.366 201.029 162.14 201.804C162.915 202.578 163.35 203.629 163.35 204.724Z" fill="#47464C"/>
<path d="M162 204.724C162 205.276 161.836 205.815 161.53 206.274C161.223 206.733 160.787 207.091 160.278 207.302C159.768 207.513 159.207 207.568 158.666 207.46C158.124 207.353 157.627 207.087 157.237 206.697C156.847 206.307 156.581 205.81 156.474 205.268C156.366 204.727 156.421 204.166 156.632 203.656C156.844 203.147 157.201 202.711 157.66 202.404C158.119 202.098 158.658 201.934 159.21 201.934C159.95 201.934 160.66 202.228 161.183 202.751C161.706 203.274 162 203.984 162 204.724Z" fill="#FEA92C"/>
<path d="M93.05 245.674H91.55V260.024H93.05V245.674Z" fill="#A7ACB8"/>
<path d="M96.23 245.674H94.73V260.024H96.23V245.674Z" fill="#A7ACB8"/>
<path d="M99.4 245.674H97.9V260.024H99.4V245.674Z" fill="#A7ACB8"/>
<path d="M102.58 245.674H101.08V260.024H102.58V245.674Z" fill="#A7ACB8"/>
<path d="M105.75 245.674H104.25V260.024H105.75V245.674Z" fill="#A7ACB8"/>
<path d="M108.93 245.674H107.43V260.024H108.93V245.674Z" fill="#A7ACB8"/>
<path d="M112.11 245.674H110.61V260.024H112.11V245.674Z" fill="#A7ACB8"/>
<path d="M207.91 245.674H206.41V260.024H207.91V245.674Z" fill="#A7ACB8"/>
<path d="M211.09 245.674H209.59V260.024H211.09V245.674Z" fill="#A7ACB8"/>
<path d="M214.27 245.674H212.77V260.024H214.27V245.674Z" fill="#A7ACB8"/>
<path d="M217.44 245.674H215.94V260.024H217.44V245.674Z" fill="#A7ACB8"/>
<path d="M220.62 245.674H219.12V260.024H220.62V245.674Z" fill="#A7ACB8"/>
<path d="M223.79 245.674H222.29V260.024H223.79V245.674Z" fill="#A7ACB8"/>
<path d="M226.97 245.674H225.47V260.024H226.97V245.674Z" fill="#A7ACB8"/>
<path d="M148.88 245.674H147.38V260.024H148.88V245.674Z" fill="#A7ACB8"/>
<path d="M152.06 245.674H150.56V260.024H152.06V245.674Z" fill="#A7ACB8"/>
<path d="M155.24 245.674H153.74V260.024H155.24V245.674Z" fill="#A7ACB8"/>
<path d="M158.41 245.674H156.91V260.024H158.41V245.674Z" fill="#A7ACB8"/>
<path d="M161.59 245.674H160.09V260.024H161.59V245.674Z" fill="#A7ACB8"/>
<path d="M164.76 245.674H163.26V260.024H164.76V245.674Z" fill="#A7ACB8"/>
<path d="M167.94 245.674H166.44V260.024H167.94V245.674Z" fill="#A7ACB8"/>
<path d="M171.09 245.674H169.59V260.024H171.09V245.674Z" fill="#A7ACB8"/>
<path d="M1371.87 256.844L1386.2 252.014C1386.08 251.654 1385.96 251.284 1385.83 250.924L1378.43 251.594L1385.02 248.894C1383.65 245.787 1381.77 242.928 1379.46 240.434L1369.24 246.724L1378.13 239.064C1377.82 238.774 1377.5 238.474 1377.13 238.194L1370.89 241.664L1375.45 236.814C1372.28 234.388 1368.66 232.608 1364.8 231.574L1360.39 238.094L1361.97 230.954C1361.53 230.874 1361.08 230.814 1360.63 230.754L1356.79 239.974L1357.84 230.534H1356.79C1352.59 230.529 1348.43 231.386 1344.58 233.054C1344.12 236.674 1343.71 240.054 1343.71 240.364C1343.71 240.674 1343.05 237.524 1342.37 234.124C1342.03 234.294 1341.7 234.484 1341.37 234.674L1342.03 245.934L1339.21 236.054C1335.97 238.311 1333.2 241.166 1331.03 244.464L1332.65 251.614L1329.65 246.694C1329.03 247.843 1328.48 249.028 1328.01 250.244L1333.92 256.864L1327.12 252.934C1326.35 255.663 1325.95 258.487 1325.96 261.324H1387.53C1387.53 258.927 1387.25 256.537 1386.7 254.204L1371.87 256.844Z" fill="#069550"/>
<path d="M513 261.904L513.4 231.084C513.4 231.084 501.27 227.324 500.1 209.644L501.63 210.304C501.63 210.304 503.29 225.214 513.4 226.794V214.594H516.29L516.49 222.834C519.078 222.138 521.413 220.714 523.216 218.73C525.018 216.747 526.214 214.287 526.66 211.644L527.76 210.644C527.76 210.644 528.69 220.844 516.56 225.644L517.42 261.984L513 261.904Z" fill="#025773"/>
<path d="M503.71 212.894C498.622 210.648 493.873 207.703 489.6 204.144C488.74 203.434 487.9 202.704 487.08 201.944C485.047 200.169 483.338 198.055 482.03 195.694C479.18 190.264 479.46 183.614 481.52 177.844C483.348 172.984 485.978 168.465 489.3 164.474C492.7 160.294 496.14 156.074 500.48 152.804C505.64 148.924 512.12 146.574 518.48 148.444C524.84 150.314 530.28 155.864 534.27 160.914C538.54 166.324 542.33 172.654 543.12 179.614C544.4 190.904 538.12 201.344 530.96 209.554C523.71 217.914 513.15 216.964 503.71 212.894Z" fill="#069550"/>
<path d="M475.62 131.204H196.99V261.364H475.62V131.204Z" fill="#C8CCD3"/>
<g style="mix-blend-mode:multiply" opacity="0.55">
<path d="M475.62 131.204H196.99V168.794H475.62V131.204Z" fill="#A9AFBA"/>
</g>
<path d="M485.83 156.534H186.78L194.81 131.204H477.79L485.83 156.534Z" fill="#444248"/>
<g style="mix-blend-mode:multiply">
<g style="mix-blend-mode:multiply">
<path d="M258.99 181.574H211.68V201.994H258.99V181.574Z" fill="#CCCFD6"/>
</g>
<g style="mix-blend-mode:multiply">
<path d="M258.99 218.674H211.68V239.094H258.99V218.674Z" fill="#CCCFD6"/>
</g>
<g style="mix-blend-mode:multiply">
<path d="M318.45 181.574H271.14V201.994H318.45V181.574Z" fill="#CCCFD6"/>
</g>
</g>
<path d="M259.84 180.364H212.53V200.784H259.84V180.364Z" fill="#E6E8EB"/>
<path d="M257.54 182.914H214.83V198.234H257.54V182.914Z" fill="#64739A"/>
<g style="mix-blend-mode:screen" opacity="0.55">
<path d="M257.54 198.224H214.83V182.914L257.54 198.224Z" fill="#64739A"/>
</g>
<path d="M237.12 182.914H235.25V198.234H237.12V182.914Z" fill="#CCCFD6"/>
<path d="M257.54 189.634H214.83V191.504H257.54V189.634Z" fill="#CCCFD6"/>
<path d="M259.84 217.454H212.53V237.874H259.84V217.454Z" fill="#E6E8EB"/>
<path d="M257.54 220.014H214.83V235.334H257.54V220.014Z" fill="#64739A"/>
<g style="mix-blend-mode:screen" opacity="0.55">
<path d="M257.54 235.324H214.83V220.014L257.54 235.324Z" fill="#64739A"/>
</g>
<path d="M237.12 220.014H235.25V235.334H237.12V220.014Z" fill="#CCCFD6"/>
<path d="M257.54 226.734H214.83V228.604H257.54V226.734Z" fill="#CCCFD6"/>
<path d="M319.3 180.364H271.99V200.784H319.3V180.364Z" fill="#E6E8EB"/>
<path d="M317 182.914H274.29V198.234H317V182.914Z" fill="#64739A"/>
<g style="mix-blend-mode:screen" opacity="0.55">
<path d="M317 198.224H274.29V182.914L317 198.224Z" fill="#64739A"/>
</g>
<path d="M296.58 182.914H294.71V198.234H296.58V182.914Z" fill="#CCCFD6"/>
<path d="M317 189.634H274.29V191.504H317V189.634Z" fill="#CCCFD6"/>
<path d="M312.31 214.284H277.12V261.364H312.31V214.284Z" fill="#CCCFD6"/>
<path d="M309.06 217.454H280.36V261.354H309.06V217.454Z" fill="#444248"/>
<path d="M452.7 180.364H350.86V261.364H452.7V180.364Z" fill="#E6E8EB"/>
<path d="M449.79 180.364H353.77V261.364H449.79V180.364Z" fill="#64739A"/>
<g style="mix-blend-mode:multiply" opacity="0.5">
<path d="M434.76 253.174V236.004H430.95V228.304H425.16V222.464H405.81V228.124H391.59V253.174H434.76Z" fill="#76848B"/>
</g>
<g style="mix-blend-mode:multiply" opacity="0.5">
<path d="M374.03 230.874V223.164H368.24V217.334H353.77V248.044H377.84V230.874H374.03Z" fill="#76848B"/>
</g>
<g style="mix-blend-mode:multiply" opacity="0.5">
<path d="M449.79 224.984H447.14V229.064H441.35V234.454H437.54V246.454H449.79V224.984Z" fill="#76848B"/>
</g>
<path d="M453.5 177.864H350.07V182.174H453.5V177.864Z" fill="#444248"/>
<path d="M449.79 249.184H353.77V261.364H449.79V249.184Z" fill="#444248"/>
<path d="M449.79 182.174H353.77V214.284H449.79V182.174Z" fill="#CCCFD6"/>
<path d="M449.79 185.804H353.77V187.624H449.79V185.804Z" fill="#9AA0AE"/>
<path d="M449.79 190.594H353.77V192.414H449.79V190.594Z" fill="#9AA0AE"/>
<path d="M449.79 195.394H353.77V197.214H449.79V195.394Z" fill="#9AA0AE"/>
<path d="M449.79 200.184H353.77V202.004H449.79V200.184Z" fill="#9AA0AE"/>
<path d="M449.79 204.974H353.77V206.794H449.79V204.974Z" fill="#9AA0AE"/>
<path d="M449.79 209.774H353.77V211.594H449.79V209.774Z" fill="#9AA0AE"/>
<path d="M382.54 221.624H367.99V242.754H382.54V221.624Z" fill="#C78B5B"/>
<path d="M387.33 221.624H372.94V242.754H387.33V221.624Z" fill="#E5BE84"/>
<path d="M382.61 221.624H379.23V225.984H382.61V221.624Z" fill="#EAD1B7"/>
<path d="M382.61 238.404H379.23V242.764H382.61V238.404Z" fill="#EAD1B7"/>
<path d="M378.22 239.284H373.76V241.974H378.22V239.284Z" fill="#F7EEE5"/>
<path d="M374.44 239.664H373.97V241.604H374.44V239.664Z" fill="#444248"/>
<path d="M374.9 239.664H374.73V241.604H374.9V239.664Z" fill="#444248"/>
<path d="M375.96 239.664H375.57V241.604H375.96V239.664Z" fill="#444248"/>
<path d="M375.33 239.664H375.09V241.604H375.33V239.664Z" fill="#444248"/>
<path d="M376.41 239.664H376.25V241.604H376.41V239.664Z" fill="#444248"/>
<path d="M377.33 239.664H377.01V241.604H377.33V239.664Z" fill="#444248"/>
<path d="M377.6 239.664H377.44V241.604H377.6V239.664Z" fill="#444248"/>
<path d="M376.87 239.664H376.65V241.604H376.87V239.664Z" fill="#444248"/>
<path d="M378.01 239.664H377.77V241.604H378.01V239.664Z" fill="#444248"/>
<g style="mix-blend-mode:multiply" opacity="0.32">
<path d="M387.34 229.144H374.64V242.754H387.34V229.144Z" fill="#C78B5B"/>
</g>
<path d="M367.64 229.964H353.76V243.564H367.64V229.964Z" fill="#C78B5B"/>
<path d="M371.5 229.964H357.7V243.564H371.5V229.964Z" fill="#E5BE84"/>
<path d="M366.45 229.964H362.75V233.464H366.45V229.964Z" fill="#EAD1B7"/>
<path d="M366.45 240.064H362.75V243.564H366.45V240.064Z" fill="#EAD1B7"/>
<path d="M361.94 240.774H358.36V242.934H361.94V240.774Z" fill="#F7EEE5"/>
<path d="M358.91 241.074H358.53V242.634H358.91V241.074Z" fill="#444248"/>
<path d="M359.27 241.074H359.14V242.634H359.27V241.074Z" fill="#444248"/>
<path d="M360.13 241.074H359.82V242.634H360.13V241.074Z" fill="#444248"/>
<path d="M359.61 241.074H359.42V242.634H359.61V241.074Z" fill="#444248"/>
<path d="M360.49 241.074H360.36V242.634H360.49V241.074Z" fill="#444248"/>
<path d="M361.23 241.074H360.97V242.634H361.23V241.074Z" fill="#444248"/>
<path d="M361.45 241.074H361.32V242.634H361.45V241.074Z" fill="#444248"/>
<path d="M360.86 241.074H360.68V242.634H360.86V241.074Z" fill="#444248"/>
<path d="M361.77 241.074H361.58V242.634H361.77V241.074Z" fill="#444248"/>
<g style="mix-blend-mode:multiply" opacity="0.32">
<path d="M371.5 233.294H358.66V243.564H371.5V233.294Z" fill="#C78B5B"/>
</g>
<path d="M389.87 230.224H378.12V241.704H389.87V230.224Z" fill="#C78B5B"/>
<path d="M393.13 230.224H381.48V241.704H393.13V230.224Z" fill="#E5BE84"/>
<path d="M388.22 230.224H386.37V233.174H388.22V230.224Z" fill="#EAD1B7"/>
<path d="M388.22 238.744H386.37V241.694H388.22V238.744Z" fill="#EAD1B7"/>
<path d="M392.3 239.344H389.28V241.164H392.3V239.344Z" fill="#F7EEE5"/>
<path d="M389.74 239.604H389.42V240.914H389.74V239.604Z" fill="#444248"/>
<path d="M390.04 239.604H389.93V240.914H390.04V239.604Z" fill="#444248"/>
<path d="M390.77 239.604H390.51V240.914H390.77V239.604Z" fill="#444248"/>
<path d="M390.33 239.604H390.17V240.914H390.33V239.604Z" fill="#444248"/>
<path d="M391.07 239.604H390.96V240.914H391.07V239.604Z" fill="#444248"/>
<path d="M391.7 239.604H391.48V240.914H391.7V239.604Z" fill="#444248"/>
<path d="M391.88 239.604H391.77V240.914H391.88V239.604Z" fill="#444248"/>
<path d="M391.38 239.604H391.23V240.914H391.38V239.604Z" fill="#444248"/>
<path d="M392.15 239.604H391.99V240.914H392.15V239.604Z" fill="#444248"/>
<path d="M393.68 241.564H381.93V253.044H393.68V241.564Z" fill="#C78B5B"/>
<path d="M396.94 241.564H385.29V253.044H396.94V241.564Z" fill="#E5BE84"/>
<path d="M392.67 241.564H389.55V244.514H392.67V241.564Z" fill="#EAD1B7"/>
<path d="M392.67 250.094H389.55V253.044H392.67V250.094Z" fill="#EAD1B7"/>
<path d="M388.87 250.694H385.85V252.524H388.87V250.694Z" fill="#F7EEE5"/>
<path d="M386.3 250.944H385.98V252.254H386.3V250.944Z" fill="#444248"/>
<path d="M386.61 250.944H386.5V252.254H386.61V250.944Z" fill="#444248"/>
<path d="M387.33 250.944H387.07V252.254H387.33V250.944Z" fill="#444248"/>
<path d="M386.9 250.944H386.74V252.254H386.9V250.944Z" fill="#444248"/>
<path d="M387.64 250.944H387.53V252.254H387.64V250.944Z" fill="#444248"/>
<path d="M388.27 250.944H388.05V252.254H388.27V250.944Z" fill="#444248"/>
<path d="M388.45 250.944H388.34V252.254H388.45V250.944Z" fill="#444248"/>
<path d="M387.95 250.944H387.8V252.254H387.95V250.944Z" fill="#444248"/>
<path d="M388.72 250.944H388.56V252.254H388.72V250.944Z" fill="#444248"/>
<path d="M379.15 235.184H360.87V253.044H379.15V235.184Z" fill="#C78B5B"/>
<path d="M384.21 235.184H366.09V253.044H384.21V235.184Z" fill="#E5BE84"/>
<path d="M377.58 235.184H372.72V239.784H377.58V235.184Z" fill="#EAD1B7"/>
<path d="M377.58 248.454H372.72V253.054H377.58V248.454Z" fill="#EAD1B7"/>
<path d="M371.66 249.384H366.96V252.224H371.66V249.384Z" fill="#F7EEE5"/>
<path d="M367.67 249.784H367.17V251.824H367.67V249.784Z" fill="#444248"/>
<path d="M368.16 249.784H367.98V251.824H368.16V249.784Z" fill="#444248"/>
<path d="M369.28 249.784H368.87V251.824H369.28V249.784Z" fill="#444248"/>
<path d="M368.6 249.784H368.35V251.824H368.6V249.784Z" fill="#444248"/>
<path d="M369.75 249.784H369.58V251.824H369.75V249.784Z" fill="#444248"/>
<path d="M370.72 249.784H370.38V251.824H370.72V249.784Z" fill="#444248"/>
<path d="M371 249.784H370.83V251.824H371V249.784Z" fill="#444248"/>
<path d="M370.23 249.784H370V251.824H370.23V249.784Z" fill="#444248"/>
<path d="M371.43 249.784H371.18V251.824H371.43V249.784Z" fill="#444248"/>
<path d="M359.87 241.564H353.76V253.044H359.87V241.564Z" fill="#C78B5B"/>
<path d="M363.12 241.564H353.76V253.044H363.12V241.564Z" fill="#E5BE84"/>
<path d="M358.86 241.564H355.74V244.514H358.86V241.564Z" fill="#EAD1B7"/>
<path d="M358.86 250.094H355.74V253.044H358.86V250.094Z" fill="#EAD1B7"/>
<path d="M355.06 250.694H353.76V252.524H355.06V250.694Z" fill="#F7EEE5"/>
<path d="M354.46 250.944H354.24V252.254H354.46V250.944Z" fill="#444248"/>
<path d="M354.64 250.944H354.53V252.254H354.64V250.944Z" fill="#444248"/>
<path d="M354.14 250.944H353.99V252.254H354.14V250.944Z" fill="#444248"/>
<path d="M354.91 250.944H354.75V252.254H354.91V250.944Z" fill="#444248"/>
<g style="mix-blend-mode:multiply" opacity="0.32">
<path d="M363.13 241.564H359.93V253.044H363.13V241.564Z" fill="#C78B5B"/>
</g>
<g style="mix-blend-mode:multiply" opacity="0.32">
<path d="M388.57 230.224H387.34V221.644H368V229.984H353.76V252.874C365.21 245.074 377.08 237.934 388.57 230.224Z" fill="#C78B5B"/>
</g>
<path d="M448.41 232.874H438.03V243.024H448.41V232.874Z" fill="#C78B5B"/>
<path d="M449.79 232.874H440.99V243.024H449.79V232.874Z" fill="#E5BE84"/>
<path d="M446.96 232.874H445.32V235.484H446.96V232.874Z" fill="#EAD1B7"/>
<path d="M446.96 240.404H445.32V243.014H446.96V240.404Z" fill="#EAD1B7"/>
<path d="M448.29 241.164H448.01V242.324H448.29V241.164Z" fill="#444248"/>
<path d="M448.57 241.164H448.47V242.324H448.57V241.164Z" fill="#444248"/>
<path d="M449.2 241.164H448.97V242.324H449.2V241.164Z" fill="#444248"/>
<path d="M448.82 241.164H448.68V242.324H448.82V241.164Z" fill="#444248"/>
<path d="M449.48 241.164H449.38V242.324H449.48V241.164Z" fill="#444248"/>
<path d="M449.75 241.164H449.62V242.324H449.75V241.164Z" fill="#444248"/>
<path d="M449.79 242.894H441.4V253.044H449.79V242.894Z" fill="#C78B5B"/>
<path d="M449.79 242.894H444.36V253.044H449.79V242.894Z" fill="#E5BE84"/>
<path d="M449.79 242.894H448.13V245.504H449.79V242.894Z" fill="#EAD1B7"/>
<path d="M449.79 250.434H448.13V253.044H449.79V250.434Z" fill="#EAD1B7"/>
<path d="M447.53 250.964H444.86V252.574H447.53V250.964Z" fill="#F7EEE5"/>
<path d="M445.26 251.194H444.98V252.354H445.26V251.194Z" fill="#444248"/>
<path d="M445.53 251.194H445.43V252.354H445.53V251.194Z" fill="#444248"/>
<path d="M446.17 251.194H445.94V252.354H446.17V251.194Z" fill="#444248"/>
<path d="M445.79 251.194H445.65V252.354H445.79V251.194Z" fill="#444248"/>
<path d="M446.45 251.194H446.35V252.354H446.45V251.194Z" fill="#444248"/>
<path d="M446.99 251.194H446.8V252.354H446.99V251.194Z" fill="#444248"/>
<path d="M447.16 251.194H447.06V252.354H447.16V251.194Z" fill="#444248"/>
<path d="M446.71 251.194H446.58V252.354H446.71V251.194Z" fill="#444248"/>
<path d="M447.39 251.194H447.25V252.354H447.39V251.194Z" fill="#444248"/>
<path d="M438.94 237.254H422.78V253.044H438.94V237.254Z" fill="#C78B5B"/>
<path d="M443.41 237.254H427.39V253.044H443.41V237.254Z" fill="#E5BE84"/>
<path d="M437.55 237.254H433.25V241.314H437.55V237.254Z" fill="#EAD1B7"/>
<path d="M437.55 248.984H433.25V253.044H437.55V248.984Z" fill="#EAD1B7"/>
<path d="M432.31 249.814H428.16V252.324H432.31V249.814Z" fill="#F7EEE5"/>
<path d="M428.79 250.164H428.35V251.974H428.79V250.164Z" fill="#444248"/>
<path d="M429.21 250.164H429.06V251.974H429.21V250.164Z" fill="#444248"/>
<path d="M430.21 250.164H429.85V251.974H430.21V250.164Z" fill="#444248"/>
<path d="M429.61 250.164H429.39V251.974H429.61V250.164Z" fill="#444248"/>
<path d="M430.63 250.164H430.48V251.974H430.63V250.164Z" fill="#444248"/>
<path d="M431.49 250.164H431.19V251.974H431.49V250.164Z" fill="#444248"/>
<path d="M431.74 250.164H431.59V251.974H431.74V250.164Z" fill="#444248"/>
<path d="M431.05 250.164H430.85V251.974H431.05V250.164Z" fill="#444248"/>
<path d="M432.11 250.164H431.89V251.974H432.11V250.164Z" fill="#444248"/>
<g style="mix-blend-mode:multiply" opacity="0.32">
<path d="M442.72 232.874V241.844H439.37V253.044H449.79V232.874H442.72Z" fill="#B05C18"/>
</g>
<path d="M1221.17 199.954H1197.35V221.784H1221.17V199.954Z" fill="#ADACAC"/>
<path d="M1267.31 217.034H1208.51V261.944H1267.31V217.034Z" fill="#D6D6D6"/>
<path opacity="0.2" d="M1269.17 217.824H1264.46V261.484H1269.17V217.824Z" fill="#2B2B2B"/>
<path opacity="0.2" d="M1241.02 217.824H1236.3V261.484H1241.02V217.824Z" fill="#2B2B2B"/>
<path opacity="0.2" d="M1212.85 217.824H1208.14V261.484H1212.85V217.824Z" fill="#2B2B2B"/>
<path d="M1156.44 218.754H1272.64V216.294C1272.64 215.341 1272.27 214.424 1271.61 213.742C1270.94 213.059 1270.03 212.665 1269.08 212.644H1160C1159.53 212.643 1159.07 212.734 1158.63 212.912C1158.2 213.09 1157.81 213.353 1157.48 213.683C1157.14 214.014 1156.88 214.407 1156.7 214.839C1156.52 215.272 1156.43 215.736 1156.43 216.204L1156.44 218.754Z" fill="#9B384B"/>
<path d="M1160 212.644H1269.07C1269.9 212.644 1270.71 212.935 1271.35 213.467C1271.99 213.998 1272.42 214.737 1272.57 215.554H1156.5C1156.65 214.738 1157.09 214 1157.73 213.469C1158.36 212.938 1159.17 212.646 1160 212.644Z" fill="#B23F50"/>
<path d="M1272.65 217.384H1156.44V219.384H1272.65V217.384Z" fill="#B7B7B7"/>
<path d="M1223.83 206.654H1138.3V171.424H1217.63L1223.83 206.654Z" fill="#9B384B"/>
<path d="M1169.46 257.264H1108.49V200.324L1138.89 167.704L1169.46 200.324V257.264Z" fill="#DDDDDD"/>
<path d="M1146.48 174.654H1130.36V175.394H1146.48V174.654Z" fill="#D1D1D1"/>
<path d="M1152.94 179.984H1126.89V180.724H1152.94V179.984Z" fill="#D1D1D1"/>
<path d="M1157.65 185.314H1121.92V186.054H1157.65V185.314Z" fill="#D1D1D1"/>
<path d="M1163.11 190.654H1116.22V191.394H1163.11V190.654Z" fill="#D1D1D1"/>
<path d="M1168.07 195.984H1111.26V196.724H1168.07V195.984Z" fill="#D1D1D1"/>
<path d="M1169.81 201.324H1108.34V202.064H1169.81V201.324Z" fill="#D1D1D1"/>
<path d="M1138.77 163.984L1102.77 200.474L1104.24 201.924C1104.91 202.579 1105.81 202.946 1106.74 202.946C1107.67 202.946 1108.57 202.579 1109.24 201.924L1138.78 172.044L1138.77 163.984Z" fill="#E3E3E3"/>
<path d="M1138.77 167.874L1104.7 202.334C1105.39 202.798 1106.22 203.007 1107.05 202.925C1107.87 202.843 1108.65 202.475 1109.23 201.884L1138.77 172.004V167.874Z" fill="#B7B7B7"/>
<path d="M1138.77 164.054V172.054L1168.23 201.864C1168.9 202.516 1169.8 202.882 1170.73 202.882C1171.66 202.882 1172.56 202.516 1173.23 201.864L1174.69 200.414L1138.77 164.054Z" fill="#E3E3E3"/>
<path d="M1138.77 167.944V172.074L1168.23 201.884C1168.81 202.475 1169.59 202.843 1170.41 202.925C1171.24 203.007 1172.07 202.798 1172.76 202.334L1138.77 167.944Z" fill="#D5D5D5"/>
<path d="M1103.25 200.994L1102.19 199.954L1138.77 162.994L1175.27 199.954L1174.21 200.994L1138.77 165.114L1103.25 200.994Z" fill="#B23F50"/>
<path d="M1210.62 212.484H1099.91V259.374H1210.62V212.484Z" fill="#DDDDDD"/>
<path d="M1210.62 216.204H1099.91V216.944H1210.62V216.204Z" fill="#D1D1D1"/>
<path d="M1210.62 221.544H1099.91V222.284H1210.62V221.544Z" fill="#D1D1D1"/>
<path d="M1210.62 226.874H1099.91V227.614H1210.62V226.874Z" fill="#D1D1D1"/>
<path d="M1210.62 232.204H1099.91V232.944H1210.62V232.204Z" fill="#D1D1D1"/>
<path d="M1210.62 237.544H1099.91V238.284H1210.62V237.544Z" fill="#D1D1D1"/>
<path d="M1210.62 242.874H1099.91V243.614H1210.62V242.874Z" fill="#D1D1D1"/>
<path d="M1210.62 248.214H1099.91V248.954H1210.62V248.214Z" fill="#D1D1D1"/>
<path d="M1210.62 253.544H1099.91V254.284H1210.62V253.544Z" fill="#D1D1D1"/>
<path d="M1125.52 222.284H1109.89V250.194H1125.52V222.284Z" fill="#F7F7F7"/>
<path d="M1124.16 223.774H1111.26V248.704H1124.16V223.774Z" fill="#E0E0E0"/>
<path d="M1123.04 224.894H1112.37V247.594H1123.04V224.894Z" fill="#3C4146"/>
<path d="M1118.27 223.774H1117.15V248.704H1118.27V223.774Z" fill="#E0E0E0"/>
<path d="M1124.12 229.824H1111.28V230.944H1124.12V229.824Z" fill="#E0E0E0"/>
<path d="M1124.12 235.824H1111.28V236.944H1124.12V235.824Z" fill="#E0E0E0"/>
<path d="M1124.12 241.824H1111.28V242.944H1124.12V241.824Z" fill="#E0E0E0"/>
<path d="M1146.79 183.194H1131.16V201.934H1146.79V183.194Z" fill="#F7F7F7"/>
<path d="M1145.43 184.684H1132.53V200.454H1145.43V184.684Z" fill="#E0E0E0"/>
<path d="M1144.32 185.804H1133.65V199.334H1144.32V185.804Z" fill="#3C4146"/>
<path d="M1139.54 184.684H1138.42V200.454H1139.54V184.684Z" fill="#E0E0E0"/>
<path d="M1145.4 190.734H1132.56V191.854H1145.4V190.734Z" fill="#E0E0E0"/>
<path d="M1163.29 222.284H1147.66V250.194H1163.29V222.284Z" fill="#F7F7F7"/>
<path d="M1161.93 223.774H1149.03V248.704H1161.93V223.774Z" fill="#E0E0E0"/>
<path d="M1160.82 224.894H1150.15V247.594H1160.82V224.894Z" fill="#3C4146"/>
<path d="M1156.04 223.774H1154.92V248.704H1156.04V223.774Z" fill="#E0E0E0"/>
<path d="M1161.9 229.824H1149.06V230.944H1161.9V229.824Z" fill="#E0E0E0"/>
<path d="M1161.9 235.824H1149.06V236.944H1161.9V235.824Z" fill="#E0E0E0"/>
<path d="M1161.9 241.824H1149.06V242.944H1161.9V241.824Z" fill="#E0E0E0"/>
<path opacity="0.2" d="M1232.39 227.964H1216.76V249.794H1232.39V227.964Z" fill="#2B2B2B"/>
<path d="M1231.02 229.444H1218.12V248.294H1231.02V229.444Z" fill="#E0E0E0"/>
<path d="M1229.91 230.564H1219.24V247.184H1229.91V230.564Z" fill="#3C4146"/>
<path d="M1225.13 229.444H1224.01V248.294H1225.13V229.444Z" fill="#E0E0E0"/>
<path d="M1230.99 235.494H1218.15V236.614H1230.99V235.494Z" fill="#E0E0E0"/>
<path d="M1230.99 241.494H1218.15V242.614H1230.99V241.494Z" fill="#E0E0E0"/>
<path opacity="0.2" d="M1260.55 227.964H1244.92V249.794H1260.55V227.964Z" fill="#2B2B2B"/>
<path d="M1259.19 229.444H1246.29V248.294H1259.19V229.444Z" fill="#E0E0E0"/>
<path d="M1258.07 230.564H1247.4V247.184H1258.07V230.564Z" fill="#3C4146"/>
<path d="M1253.3 229.444H1252.18V248.294H1253.3V229.444Z" fill="#E0E0E0"/>
<path d="M1259.15 235.494H1246.31V236.614H1259.15V235.494Z" fill="#E0E0E0"/>
<path d="M1259.15 241.494H1246.31V242.614H1259.15V241.494Z" fill="#E0E0E0"/>
<path d="M1203.48 222.164H1177.62V259.374H1203.48V222.164Z" fill="#828282"/>
<path d="M1203.43 249.394H1177.64V258.544H1203.43V249.394Z" fill="#474646"/>
<path d="M1203.43 250.904H1177.64V252.554H1203.43V250.904Z" fill="#333232"/>
<path d="M1203.43 254.044H1177.64V255.694H1203.43V254.044Z" fill="#333232"/>
<path d="M1203.43 257.444H1177.64V259.094H1203.43V257.444Z" fill="#333232"/>
<path d="M1097.14 212.054H1213.35V209.644C1213.35 208.689 1212.98 207.771 1212.31 207.088C1211.64 206.405 1210.73 206.012 1209.78 205.994H1100.72C1100.25 205.993 1099.79 206.084 1099.35 206.262C1098.92 206.44 1098.53 206.702 1098.19 207.033C1097.86 207.363 1097.6 207.756 1097.42 208.189C1097.23 208.621 1097.14 209.085 1097.14 209.554V212.054Z" fill="#9B384B"/>
<path d="M1100.72 205.944H1209.78C1210.61 205.942 1211.42 206.232 1212.06 206.764C1212.7 207.296 1213.13 208.036 1213.28 208.854H1097.21C1097.36 208.035 1097.8 207.295 1098.44 206.763C1099.08 206.232 1099.89 205.942 1100.72 205.944Z" fill="#B23F50"/>
<path d="M1213.35 210.684H1097.14V212.684H1213.35V210.684Z" fill="#B7B7B7"/>
<path d="M1195.5 226.424H1185.61V249.324H1195.5V226.424Z" fill="#B7B7B7"/>
<path d="M1194.36 227.724H1186.74V232.934H1194.36V227.724Z" fill="#3C4146"/>
<path d="M1194.36 234.554H1186.74V247.674H1194.36V234.554Z" fill="#3C4146"/>
<path opacity="0.2" d="M1203.45 222.524H1177.66V229.934H1203.45V222.524Z" fill="#2B2B2B"/>
<path d="M1100.72 259.034H1209.78C1210.61 259.032 1211.42 259.322 1212.06 259.854C1212.7 260.386 1213.13 261.126 1213.28 261.944H1097.21C1097.36 261.126 1097.8 260.387 1098.44 259.856C1099.08 259.324 1099.89 259.034 1100.72 259.034Z" fill="#919191"/>
<path d="M1204.72 198.394H1185.99V180.034L1195.32 175.274L1204.72 180.034V198.394Z" fill="#DDDDDD"/>
<path d="M1201.09 185.004H1189.77V196.724H1201.09V185.004Z" fill="#F7F7F7"/>
<path d="M1200.1 186.084H1190.76V195.854H1200.1V186.084Z" fill="#D5D5D5"/>
<path d="M1199.29 186.894H1191.56V195.044H1199.29V186.894Z" fill="#3C4146"/>
<path d="M1195.83 186.084H1195.02V195.584H1195.83V186.084Z" fill="#D5D5D5"/>
<path d="M1200.08 190.464H1190.78V191.274H1200.08V190.464Z" fill="#D5D5D5"/>
<path d="M1195.24 169.934V177.934L1202.24 185.004C1202.91 185.659 1203.81 186.026 1204.74 186.026C1205.67 186.026 1206.57 185.659 1207.24 185.004L1208.7 183.554L1195.24 169.934Z" fill="#E3E3E3"/>
<path d="M1195.24 173.804V177.934L1202.24 185.004C1202.82 185.594 1203.59 185.961 1204.42 186.044C1205.24 186.126 1206.07 185.917 1206.76 185.454L1195.24 173.804Z" fill="#D5D5D5"/>
<path d="M1195.24 170.124L1181.93 183.644L1183.39 185.094C1184.06 185.746 1184.96 186.112 1185.89 186.112C1186.82 186.112 1187.72 185.746 1188.39 185.094L1195.19 178.214L1195.24 170.124Z" fill="#E3E3E3"/>
<path d="M1195.24 173.994L1183.91 185.454C1184.6 185.918 1185.43 186.127 1186.26 186.045C1187.08 185.963 1187.86 185.595 1188.44 185.004L1195.24 178.124V173.994Z" fill="#B7B7B7"/>
<path d="M1208.29 184.174L1195.37 171.114L1182.41 184.124L1181.36 183.074L1195.37 169.004L1209.35 183.124L1208.29 184.174Z" fill="#B23F50"/>
<path d="M179.82 252.744C184.26 245.564 194.33 244.744 199.09 251.744C199.455 252.297 199.966 252.738 200.566 253.019C201.166 253.299 201.832 253.409 202.49 253.334C204.28 253.137 206.091 253.325 207.802 253.885C209.513 254.446 211.084 255.366 212.41 256.584C212.882 257.011 213.474 257.282 214.106 257.361C214.737 257.44 215.378 257.322 215.94 257.024C217.709 256.074 219.765 255.804 221.72 256.264C222.27 256.402 222.85 256.358 223.373 256.138C223.896 255.918 224.334 255.534 224.62 255.044C227.87 249.204 235.77 248.304 239.62 253.664C239.959 254.154 240.421 254.545 240.961 254.798C241.5 255.051 242.097 255.157 242.69 255.104C247.07 254.734 250.53 257.244 253.31 261.324H160.83C165.27 257.574 169.9 255.024 175.02 255.274C175.974 255.323 176.923 255.114 177.768 254.668C178.612 254.223 179.321 253.558 179.82 252.744Z" fill="#069550"/>
<path d="M191.41 261.284C191.41 261.284 194.98 258.084 202.22 258.434C203.176 258.461 204.113 258.165 204.88 257.594C206.55 256.323 208.643 255.74 210.73 255.964C211.191 256.01 211.656 255.93 212.075 255.733C212.494 255.536 212.852 255.229 213.11 254.844C216.36 250.104 223.22 250.844 226.05 255.844C226.348 256.329 226.778 256.719 227.29 256.969C227.802 257.219 228.374 257.318 228.94 257.254C232.39 257.044 235.52 258.754 238.51 261.254L191.41 261.284Z" fill="#4DC27E"/>
<path d="M1299.57 261.574L1300.05 223.574C1300.05 223.574 1285.05 218.934 1283.66 197.134L1285.53 197.944C1285.53 197.944 1287.59 216.334 1300.05 218.284V203.234H1303.61L1303.85 213.404C1310.85 211.294 1315.42 205.944 1316.4 199.574L1317.76 198.274C1317.76 198.274 1318.9 210.854 1303.93 216.764L1305 261.594L1299.57 261.574Z" fill="#025773"/>
<path d="M1288.05 201.124C1281.78 198.35 1275.92 194.719 1270.65 190.334C1269.59 189.454 1268.55 188.544 1267.54 187.614C1265.03 185.42 1262.93 182.808 1261.31 179.894C1257.79 173.204 1258.14 164.994 1260.69 157.894C1262.94 151.897 1266.18 146.322 1270.28 141.404C1274.47 136.244 1278.72 131.034 1284.07 127.004C1290.44 122.224 1298.43 119.314 1306.3 121.624C1314.17 123.934 1320.86 130.774 1325.78 137.004C1331.05 143.674 1335.78 151.494 1336.7 160.074C1338.28 174.004 1330.51 186.874 1321.7 197.004C1312.73 207.314 1299.7 206.144 1288.05 201.124Z" fill="#069550"/>
<path d="M1214.63 243.554C1223.91 228.554 1244.98 226.704 1254.94 241.554C1255.7 242.712 1256.77 243.635 1258.02 244.221C1259.28 244.807 1260.67 245.033 1262.05 244.874C1270.05 243.984 1276.88 246.604 1282.81 251.674C1283.8 252.566 1285.03 253.132 1286.35 253.297C1287.67 253.461 1289.01 253.216 1290.18 252.594C1293.88 250.605 1298.19 250.039 1302.28 251.004C1303.43 251.291 1304.64 251.196 1305.74 250.735C1306.83 250.273 1307.74 249.469 1308.34 248.444C1315.15 236.234 1331.67 234.354 1339.7 245.574C1340.41 246.593 1341.38 247.407 1342.51 247.934C1343.64 248.46 1344.88 248.681 1346.12 248.574C1355.29 247.784 1362.52 253.044 1368.34 261.574H1174.91C1184.18 253.734 1193.91 248.404 1204.58 248.914C1206.58 249.011 1208.57 248.564 1210.34 247.62C1212.11 246.676 1213.59 245.271 1214.63 243.554Z" fill="#069550"/>
<path d="M1238.86 261.414C1238.86 261.414 1246.34 254.714 1261.49 255.414C1263.48 255.483 1265.44 254.869 1267.04 253.674C1270.54 251.015 1274.92 249.795 1279.29 250.264C1280.26 250.368 1281.24 250.203 1282.12 249.789C1283 249.375 1283.75 248.726 1284.29 247.914C1291.1 238.004 1305.45 239.524 1311.38 250.044C1312 251.057 1312.89 251.875 1313.95 252.406C1315.01 252.936 1316.2 253.158 1317.38 253.044C1324.61 252.594 1331.15 256.164 1337.38 261.444L1238.86 261.414Z" fill="#4DC27E"/>
<path d="M145 261.364C143.897 258.259 142.14 255.426 139.847 253.059C137.554 250.692 134.779 248.845 131.71 247.644C128.33 246.364 124.733 245.756 121.12 245.854C112.85 246.084 118.7 239.294 119.12 236.204C119.369 234.493 119.263 232.748 118.808 231.08C118.354 229.411 117.562 227.853 116.48 226.504C112.87 221.934 106.58 220.284 100.96 220.874L100.12 220.984C99.0195 221.147 97.9398 221.429 96.9 221.824C94.71 222.634 93.49 221.124 94.9 218.114C103.17 201.064 85.68 176.304 63.9 183.314C59.2652 185.115 55.0435 187.836 51.49 191.314C50.09 192.684 49.24 191.904 49.49 190.604C53 176.304 39.3 169.424 29.3 175.574C28.751 175.925 28.1188 176.124 27.4679 176.15C26.817 176.176 26.1708 176.03 25.5952 175.725C25.0196 175.419 24.5353 174.967 24.1918 174.414C23.8483 173.86 23.6579 173.225 23.64 172.574C23.44 158.404 14.4 148.014 -0.540022 156.854L-0.960022 157.034V261.364H145Z" fill="#006F7A"/>
<path d="M84.79 261.364C84.1204 259.587 83.0856 257.97 81.7524 256.618C80.4192 255.266 78.8173 254.209 77.05 253.514C74.4329 252.542 71.6174 252.226 68.85 252.594C68.4613 252.638 68.0677 252.604 67.6927 252.492C67.3177 252.381 66.969 252.195 66.6675 251.946C66.366 251.696 66.1178 251.389 65.9379 251.042C65.7579 250.694 65.6498 250.314 65.62 249.924C65.4665 248.354 64.8986 246.852 63.9744 245.573C63.0502 244.294 61.8029 243.283 60.36 242.644C58.6098 241.982 56.7156 241.796 54.87 242.104C52.96 242.394 52.57 241.214 53.77 239.384C54.4228 238.35 54.9657 237.251 55.39 236.104C60.26 226.104 49.96 211.474 37.14 215.604C34.879 216.593 32.8027 217.959 31 219.644C29.47 220.864 28.13 220.554 28.22 218.524C28.34 211.714 22.22 208.094 17.13 210.854C16.7879 211.042 16.4021 211.137 16.0117 211.129C15.6212 211.12 15.2399 211.009 14.9061 210.806C14.5724 210.603 14.2981 210.316 14.1109 209.973C13.9237 209.631 13.8303 209.244 13.84 208.854C14 198.824 5.57 193.524 -1 195.944V261.364H84.79Z" fill="#4DC27E"/>
<path d="M127 244.274C125.45 244.363 123.922 243.875 122.71 242.904C123.827 241.699 125.298 240.88 126.91 240.564C128.457 240.477 129.981 240.965 131.19 241.934C130.078 243.14 128.61 243.96 127 244.274Z" fill="#006F7A"/>
<path d="M21.58 203.704C20.3146 205.66 18.3753 207.083 16.13 207.704C16.13 207.704 15.21 203.614 16.94 200.514C18.2009 198.558 20.1372 197.135 22.38 196.514C22.38 196.514 23.3 200.644 21.58 203.704Z" fill="#009687"/>
<path d="M126.25 236.134C125.238 238.19 123.609 239.879 121.59 240.964C120.896 238.844 120.931 236.552 121.69 234.454C122.704 232.402 124.333 230.717 126.35 229.634C127.041 231.751 127.006 234.039 126.25 236.134Z" fill="#006F7A"/>
<path d="M493.62 249.644C499.62 239.904 513.29 238.714 519.75 248.334C520.244 249.085 520.936 249.685 521.75 250.066C522.563 250.447 523.467 250.595 524.36 250.494C526.787 250.226 529.243 250.481 531.563 251.242C533.883 252.003 536.013 253.251 537.81 254.904C538.451 255.479 539.253 255.845 540.107 255.95C540.962 256.056 541.829 255.896 542.59 255.494C544.994 254.216 547.782 253.861 550.43 254.494C551.176 254.681 551.963 254.62 552.672 254.32C553.381 254.021 553.973 253.499 554.36 252.834C558.78 244.924 569.48 243.704 574.69 250.974C575.151 251.636 575.778 252.165 576.508 252.507C577.239 252.849 578.046 252.993 578.85 252.924C584.79 252.414 589.48 255.824 593.25 261.354H467.87C473.87 256.274 480.17 252.814 487.11 253.144C488.41 253.205 489.703 252.911 490.849 252.295C491.996 251.678 492.953 250.762 493.62 249.644Z" fill="#069550"/>
<path d="M587.25 202.564L579 194.454C578.53 193.994 577.83 194.404 577.83 195.134V202.494L587.25 202.564Z" fill="#4D6007"/>
<path d="M564.23 254.144C564.188 254.583 564.319 255.022 564.595 255.365C564.872 255.709 565.272 255.931 565.71 255.984L577.94 256.064C578.38 256.018 578.784 255.802 579.066 255.462C579.349 255.122 579.486 254.685 579.45 254.244L579.53 241.514C579.572 241.075 579.441 240.636 579.165 240.293C578.888 239.949 578.488 239.727 578.05 239.674L565.82 239.644C565.38 239.69 564.976 239.906 564.694 240.246C564.411 240.586 564.274 241.023 564.31 241.464L564.23 254.144Z" fill="#FF9D39"/>
<path d="M559.28 250.584C559.28 256.274 556.28 260.864 552.73 260.834C549.18 260.804 546.27 256.184 546.31 250.504C546.35 244.824 549.31 240.224 552.86 240.254C556.41 240.284 559.32 244.904 559.28 250.584Z" fill="#342B2F"/>
<path d="M552.73 260.834C549.15 260.834 546.27 256.184 546.31 250.504C546.35 244.824 549.31 240.224 552.86 240.254H547.94C544.36 240.254 541.43 244.824 541.39 250.504C541.35 256.184 544.23 260.824 547.81 260.844L552.73 260.834Z" fill="#2D2A2F"/>
<path d="M597.3 254.364C597.255 254.803 597.386 255.241 597.663 255.584C597.94 255.927 598.342 256.146 598.78 256.194L611.01 256.274C611.449 256.231 611.853 256.017 612.136 255.678C612.418 255.34 612.556 254.904 612.52 254.464L612.6 241.724C612.642 241.286 612.511 240.849 612.234 240.507C611.957 240.164 611.557 239.944 611.12 239.894L598.89 239.814C598.451 239.857 598.047 240.071 597.764 240.41C597.482 240.748 597.344 241.185 597.38 241.624L597.3 254.364Z" fill="#4D6007"/>
<path d="M535.98 235.144L610.35 235.634L609.19 251.824L534.15 251.334L535.98 235.144Z" fill="#5B5486"/>
<path d="M577.53 236.644L578.53 194.234L614.42 194.494V202.964L619.05 202.754C619.395 202.797 619.71 202.972 619.928 203.242C620.147 203.513 620.251 203.858 620.22 204.204V204.394C620.225 204.765 620.156 205.132 620.017 205.476C619.878 205.819 619.671 206.132 619.41 206.394C619.155 206.655 618.964 206.971 618.851 207.318C618.738 207.665 618.707 208.033 618.76 208.394L620.76 223.894C620.76 224.254 619.6 224.594 619.64 226.034C619.64 226.034 619.43 249.034 619.17 247.714C618.08 242.234 600.33 237.824 595.17 237.794C589.23 237.794 584.56 243.174 583.83 249.794C583.828 250.238 583.665 250.665 583.37 250.997C583.076 251.328 582.67 251.54 582.23 251.594L534.33 251.294C533.892 251.246 533.49 251.027 533.213 250.684C532.936 250.341 532.805 249.903 532.85 249.464L532.93 236.324L577.53 236.644Z" fill="#FF9D39"/>
<path d="M526.5 234.644C526.458 235.084 526.591 235.522 526.87 235.865C527.148 236.207 527.551 236.426 527.99 236.474L571.66 236.764C572.142 236.764 572.604 236.574 572.947 236.235C573.29 235.896 573.485 235.436 573.49 234.954L573.74 197.604C573.782 197.164 573.649 196.726 573.37 196.383C573.092 196.041 572.689 195.822 572.25 195.774L528.25 195.484C527.813 195.53 527.411 195.745 527.131 196.083C526.85 196.421 526.714 196.856 526.75 197.294L526.5 234.644Z" fill="#A0642F"/>
<path d="M605.58 250.884C605.58 256.574 602.58 261.164 599.03 261.144C595.48 261.124 592.57 256.484 592.61 250.804C592.65 245.124 595.61 240.534 599.16 240.554C602.71 240.574 605.62 245.204 605.58 250.884Z" fill="#342B2F"/>
<path d="M599 261.144C595.41 261.144 592.54 256.484 592.58 250.804C592.62 245.124 595.58 240.534 599.13 240.554H594.21C590.63 240.554 587.7 245.114 587.66 250.804C587.62 256.494 590.49 261.114 594.08 261.134L599 261.144Z" fill="#2D2A2F"/>
<path d="M571.85 236.904L646.22 237.394L645.07 252.074L570.03 251.584L571.85 236.904Z" fill="#E28734"/>
<path d="M526.23 234.644C526.19 235.084 526.324 235.523 526.602 235.866C526.88 236.21 527.281 236.431 527.72 236.484L573.21 236.774L573.55 184.774C573.595 184.335 573.464 183.897 573.187 183.554C572.91 183.211 572.508 182.992 572.07 182.944L528.07 182.654C527.631 182.697 527.227 182.911 526.944 183.25C526.662 183.588 526.524 184.025 526.56 184.464L526.23 234.644Z" fill="#544549"/>
<path d="M613.41 236.924L613.64 202.544L642 202.954C642.346 202.994 642.663 203.169 642.881 203.44C643.1 203.711 643.204 204.057 643.17 204.404C643.17 206.864 641.46 206.514 641.72 208.584L643.72 224.454C643.72 224.814 642.49 224.774 642.54 226.214C642.54 226.214 642.42 252.384 642.42 252.364C642.419 250.87 642.299 249.379 642.06 247.904C640.97 242.424 636.06 238.094 630.95 238.064C625.01 238.064 620.34 243.444 619.61 250.064C619.608 250.508 619.445 250.935 619.15 251.267C618.856 251.598 618.45 251.81 618.01 251.864L599.4 251.744C598.958 251.681 598.555 251.46 598.264 251.121C597.973 250.783 597.816 250.35 597.82 249.904C597.16 243.084 592.42 237.774 586.64 237.744C580.86 237.714 576.04 242.964 575.29 249.794C575.289 250.236 575.127 250.662 574.834 250.994C574.541 251.325 574.138 251.538 573.7 251.594H570.11C569.671 251.544 569.269 251.322 568.992 250.978C568.715 250.634 568.585 250.194 568.63 249.754L568.71 236.614L613.41 236.924Z" fill="#FFBC4F"/>
<path d="M621.38 230.824H623.84C625.46 230.824 625.48 227.824 623.84 227.824H621.4C619.77 227.814 619.75 230.814 621.38 230.824Z" fill="#403336"/>
<path d="M568.76 241.984H566.43C564.43 241.984 564.43 245.984 566.43 245.984H568.77L568.76 241.984Z" fill="#DD3342"/>
<path d="M566.4 245.994C564.4 245.994 564.4 241.994 566.4 241.994H561.14C560.7 242.04 560.296 242.256 560.014 242.596C559.731 242.936 559.594 243.373 559.63 243.814V244.184C559.588 244.623 559.719 245.062 559.995 245.405C560.272 245.749 560.672 245.971 561.11 246.024L566.4 245.994Z" fill="#FF535C"/>
<path d="M538.37 241.794H536.03C534.03 241.794 534.03 245.794 536.03 245.794H538.36L538.37 241.794Z" fill="#DD3342"/>
<path d="M536 245.794C534 245.794 534 241.794 536 241.794H530.74C528.74 241.794 528.74 245.794 530.74 245.794H536Z" fill="#FF535C"/>
<path d="M623.13 202.814L614.86 194.704C614.39 194.244 613.69 194.654 613.69 195.394L613.64 202.744L623.13 202.814Z" fill="#FFBC4F"/>
<path d="M647.17 251.644L643.64 254.474C643.1 254.904 642.39 254.474 642.4 253.654L642.58 226.184C642.58 225.184 642.44 224.364 644.08 224.374H645.85C646.288 224.424 646.689 224.644 646.967 224.986C647.246 225.328 647.379 225.765 647.34 226.204L647.17 251.644Z" fill="#EAE5E1"/>
<path d="M616.691 225.27L616.561 244.74C616.56 244.905 616.694 245.04 616.86 245.042L616.87 245.042C617.035 245.043 617.17 244.909 617.171 244.744L617.301 225.274C617.302 225.108 617.168 224.973 617.003 224.972L616.993 224.972C616.827 224.971 616.692 225.104 616.691 225.27Z" fill="#FF9D39"/>
<path d="M643.1 224.934L642.95 247.934H644.2L644.36 224.414H643.65C643.509 224.414 643.374 224.468 643.271 224.564C643.169 224.661 643.108 224.793 643.1 224.934Z" fill="#D8D5D2"/>
<path d="M611.91 225.794L611.74 251.794H614.6L614.77 225.794C614.765 225.613 614.724 225.434 614.65 225.269C614.576 225.103 614.47 224.954 614.338 224.83C614.206 224.705 614.051 224.608 613.881 224.544C613.712 224.479 613.531 224.449 613.35 224.454C613.167 224.445 612.984 224.472 612.811 224.535C612.639 224.598 612.481 224.694 612.346 224.819C612.212 224.944 612.104 225.095 612.029 225.262C611.954 225.43 611.914 225.611 611.91 225.794Z" fill="#F79237"/>
<path d="M632.83 261.364C629.25 261.364 626.38 256.714 626.41 251.024C626.44 245.334 629.41 240.754 632.97 240.774H628.05C624.47 240.774 621.53 245.334 621.49 251.024C621.45 256.714 624.33 261.334 627.91 261.364H632.83Z" fill="#2F3435"/>
<path d="M637.28 251.094C637.28 254.954 635.28 258.094 632.84 258.044C630.4 257.994 628.46 254.894 628.49 251.044C628.52 247.194 630.49 244.044 632.93 244.104C635.37 244.164 637.31 247.244 637.28 251.094Z" fill="#4F4C43"/>
<path d="M632.92 258.044C635.35 258.044 637.34 254.954 637.36 251.094C637.38 247.234 635.44 244.094 633.01 244.094H630.01C632.43 244.094 634.38 247.244 634.36 251.094C634.34 254.944 632.36 258.094 629.92 258.044H632.92Z" fill="#73716B"/>
<path d="M635 251.084C635 252.874 634.06 254.324 632.93 254.314C631.8 254.304 630.93 252.844 630.93 251.054C630.93 249.264 631.87 247.814 633 247.814C634.13 247.814 635 249.284 635 251.084Z" fill="#A4B1B2"/>
<path d="M632.92 247.814C631.79 247.814 630.86 249.264 630.85 251.054C630.84 252.844 631.75 254.314 632.85 254.314H632C630.87 254.314 630 252.844 630 251.044C630 249.244 630.94 247.804 632.07 247.814H632.92Z" fill="#73716B"/>
<path d="M639.39 251.114C639.39 256.794 636.39 261.384 632.83 261.364C629.27 261.344 626.38 256.714 626.41 251.024C626.44 245.334 629.41 240.754 632.97 240.774C636.53 240.794 639.42 245.424 639.39 251.114ZM637.28 251.114C637.28 247.264 635.36 244.114 632.93 244.114C630.5 244.114 628.51 247.204 628.49 251.054C628.47 254.904 630.41 258.054 632.84 258.054C635.27 258.054 637.26 254.954 637.28 251.094V251.114Z" fill="#2D2A2F"/>
<path d="M589.11 261.074C585.53 261.074 582.65 256.424 582.69 250.734C582.73 245.044 585.69 240.464 589.25 240.484H584.32C580.74 240.484 577.81 245.054 577.77 250.734C577.73 256.414 580.61 261.054 584.19 261.074H589.11Z" fill="#2F3435"/>
<path d="M593.56 250.814C593.56 254.664 591.56 257.814 589.12 257.814C586.68 257.814 584.74 254.654 584.77 250.814C584.8 246.974 586.77 243.814 589.21 243.814C591.65 243.814 593.58 246.954 593.56 250.814Z" fill="#4F4C43"/>
<path d="M589.2 257.764C591.63 257.764 593.62 254.664 593.64 250.764C593.66 246.864 591.72 243.764 589.29 243.764H586.29C588.72 243.764 590.67 246.914 590.64 250.764C590.61 254.614 588.64 257.764 586.2 257.764H589.2Z" fill="#73716B"/>
<path d="M591.22 250.794C591.22 252.594 590.29 254.034 589.16 254.034C588.03 254.034 587.16 252.564 587.16 250.764C587.16 248.964 588.1 247.524 589.23 247.534C590.36 247.544 591.24 249.004 591.22 250.794Z" fill="#A4B1B2"/>
<path d="M589.2 247.534C588.07 247.534 587.14 248.974 587.13 250.764C587.12 252.554 588.02 254.024 589.13 254.034H588.22C587.09 254.034 586.22 252.564 586.22 250.774C586.22 248.984 587.16 247.524 588.29 247.534H589.2Z" fill="#73716B"/>
<path d="M595.66 250.824C595.66 256.504 592.66 261.094 589.11 261.074C585.56 261.054 582.65 256.424 582.69 250.734C582.73 245.044 585.69 240.464 589.25 240.484C592.81 240.504 595.7 245.144 595.66 250.824ZM593.56 250.824C593.56 246.964 591.64 243.824 589.21 243.824C586.78 243.824 584.79 246.914 584.77 250.824C584.75 254.734 586.69 257.824 589.12 257.824C591.55 257.824 593.53 254.644 593.56 250.814V250.824Z" fill="#2D2A2F"/>
<path d="M649.24 249.734C649.283 249.299 649.156 248.865 648.886 248.522C648.615 248.179 648.223 247.954 647.79 247.894H641.94C641.507 247.944 641.111 248.162 640.837 248.5C640.562 248.838 640.431 249.27 640.47 249.704V252.814C640.422 253.245 640.544 253.679 640.812 254.021C641.079 254.363 641.47 254.587 641.9 254.644H647.74C648.174 254.596 648.573 254.38 648.85 254.041C649.126 253.703 649.259 253.269 649.22 252.834L649.24 249.734Z" fill="#342B2F"/>
<path d="M651.49 249.744C651.538 249.31 651.413 248.874 651.141 248.531C650.87 248.188 650.474 247.967 650.04 247.914H644.2C643.765 247.964 643.366 248.183 643.09 248.523C642.813 248.863 642.681 249.298 642.72 249.734V252.834C642.675 253.269 642.801 253.705 643.071 254.048C643.342 254.392 643.736 254.617 644.17 254.674H650.01C650.444 254.621 650.841 254.402 651.117 254.063C651.393 253.723 651.527 253.29 651.49 252.854V249.744Z" fill="#403336"/>
<path d="M537.16 234.724C537.16 235.724 537.66 236.554 538.3 236.564L573.21 236.784L573.55 184.784C573.55 183.784 573.05 182.954 572.41 182.954L538.65 182.734C538.02 182.734 537.5 183.544 537.49 184.544L537.16 234.724Z" fill="#403336"/>
<path d="M564.44 214.224H541.37V236.764H564.44V214.224Z" fill="#C78B5B"/>
<path d="M570.83 214.224H547.96V236.764H570.83V214.224Z" fill="#E5BE84"/>
<path d="M562.46 214.224H556.32V220.024H562.46V214.224Z" fill="#EAD1B7"/>
<path d="M562.46 230.964H556.32V236.764H562.46V230.964Z" fill="#EAD1B7"/>
<path d="M554.98 232.144H549.05V235.724H554.98V232.144Z" fill="#F7EEE5"/>
<path d="M549.95 232.644H549.32V235.224H549.95V232.644Z" fill="#444248"/>
<path d="M550.56 232.644H550.34V235.224H550.56V232.644Z" fill="#444248"/>
<path d="M551.98 232.644H551.46V235.224H551.98V232.644Z" fill="#444248"/>
<path d="M551.12 232.644H550.81V235.224H551.12V232.644Z" fill="#444248"/>
<path d="M552.57 232.644H552.36V235.224H552.57V232.644Z" fill="#444248"/>
<path d="M553.8 232.644H553.37V235.224H553.8V232.644Z" fill="#444248"/>
<path d="M554.16 232.644H553.95V235.224H554.16V232.644Z" fill="#444248"/>
<path d="M553.18 232.644H552.89V235.224H553.18V232.644Z" fill="#444248"/>
<path d="M554.69 232.644H554.38V235.224H554.69V232.644Z" fill="#444248"/>
<path d="M598.24 254.384C598.198 254.823 598.329 255.262 598.605 255.605C598.882 255.949 599.282 256.171 599.72 256.224L611.95 256.304C612.389 256.256 612.792 256.039 613.073 255.7C613.355 255.36 613.494 254.924 613.46 254.484L613.54 241.754C613.582 241.315 613.451 240.877 613.175 240.533C612.898 240.189 612.498 239.967 612.06 239.914L599.83 239.834C599.39 239.88 598.986 240.096 598.704 240.436C598.421 240.776 598.284 241.213 598.32 241.654L598.24 254.384Z" fill="#FFBC4F"/>
<path d="M562.38 234.894C562.335 235.333 562.466 235.771 562.743 236.114C563.02 236.457 563.422 236.676 563.86 236.724L607.53 237.014C608.014 237.017 608.479 236.828 608.823 236.489C609.168 236.15 609.365 235.688 609.37 235.204L609.7 184.984C609.742 184.545 609.611 184.107 609.335 183.763C609.058 183.419 608.658 183.197 608.22 183.144L564.22 182.854C563.78 182.9 563.376 183.116 563.094 183.456C562.811 183.796 562.674 184.233 562.71 184.674L562.38 234.894Z" fill="#D8D5D2"/>
<path d="M602.24 254.404L602.32 241.674C602.284 241.233 602.421 240.796 602.704 240.456C602.986 240.116 603.39 239.9 603.83 239.854H599.16C598.721 239.902 598.318 240.119 598.037 240.458C597.755 240.798 597.616 241.234 597.65 241.674L597.57 254.404C597.528 254.843 597.659 255.282 597.935 255.625C598.212 255.969 598.612 256.191 599.05 256.244H603.72C603.281 256.194 602.879 255.972 602.602 255.628C602.325 255.284 602.195 254.844 602.24 254.404Z" fill="#FF9D39"/>
<path d="M560.65 249.644C560.608 249.209 560.738 248.774 561.013 248.434C561.288 248.093 561.685 247.874 562.12 247.824L570.54 247.884C570.972 247.942 571.364 248.165 571.635 248.506C571.905 248.847 572.033 249.281 571.99 249.714V252.824C572.027 253.26 571.893 253.693 571.617 254.033C571.341 254.372 570.944 254.591 570.51 254.644L562.09 254.584C561.658 254.529 561.265 254.306 560.995 253.964C560.726 253.622 560.602 253.187 560.65 252.754V249.644Z" fill="#B3D4DB"/>
<path d="M527.39 249.414C527.348 248.98 527.479 248.546 527.754 248.208C528.029 247.869 528.426 247.652 528.86 247.604L564.96 247.834C565.393 247.894 565.785 248.119 566.056 248.462C566.326 248.805 566.453 249.239 566.41 249.674V252.784C566.449 253.219 566.316 253.653 566.04 253.991C565.763 254.33 565.365 254.546 564.93 254.594L528.84 254.364C528.406 254.307 528.012 254.082 527.741 253.738C527.471 253.395 527.345 252.959 527.39 252.524V249.414Z" fill="#D3EBEF"/>
<path d="M552.45 249.084C552.45 248.988 552.412 248.895 552.345 248.826C552.278 248.757 552.186 248.717 552.09 248.714C541.56 248.654 541.35 248.414 541.35 249.014V253.114C541.35 253.21 541.388 253.303 541.455 253.372C541.522 253.441 541.614 253.481 541.71 253.484C552.24 253.544 552.45 253.784 552.46 253.184L552.45 249.084Z" fill="#FF9D39"/>
<path d="M542.26 249.024V253.114C542.259 253.163 542.267 253.212 542.285 253.257C542.303 253.303 542.331 253.344 542.365 253.379C542.4 253.413 542.441 253.441 542.487 253.459C542.532 253.477 542.581 253.485 542.63 253.484H541.71C541.614 253.481 541.522 253.441 541.455 253.372C541.388 253.303 541.35 253.211 541.35 253.114C541.35 248.114 540.96 248.644 542.66 248.654C542.609 248.65 542.558 248.656 542.509 248.673C542.461 248.69 542.416 248.716 542.379 248.751C542.341 248.786 542.311 248.828 542.291 248.875C542.27 248.922 542.26 248.973 542.26 249.024Z" fill="#D88336"/>
<path d="M636.94 223.484H635.31C634.69 219.194 628.22 219.154 627.55 223.434H625.91C626.87 217.204 636.07 217.264 636.94 223.484Z" fill="#2D2A2F"/>
<path d="M616.85 221.544V215.044H620.63C621.09 215.077 621.52 215.283 621.834 215.621C622.147 215.959 622.321 216.403 622.32 216.864V223.364H618.18C617.779 223.266 617.426 223.03 617.183 222.697C616.94 222.364 616.822 221.956 616.85 221.544Z" fill="#544549"/>
<path d="M627.3 216.934V223.424H622.36V216.924C622.361 216.463 622.187 216.019 621.874 215.681C621.56 215.343 621.13 215.137 620.67 215.104H625.49C625.971 215.112 626.43 215.308 626.768 215.65C627.107 215.992 627.297 216.453 627.3 216.934Z" fill="#403336"/>
<path opacity="0.45" d="M616.93 210.094C616.891 209.654 617.026 209.217 617.307 208.877C617.588 208.536 617.991 208.32 618.43 208.274L636.19 208.324C636.636 208.369 637.049 208.583 637.344 208.92C637.639 209.258 637.795 209.696 637.78 210.144L638.37 221.674C638.399 221.885 638.386 222.1 638.332 222.306C638.277 222.512 638.181 222.705 638.051 222.874C637.92 223.042 637.758 223.183 637.572 223.288C637.386 223.393 637.182 223.459 636.97 223.484L618.34 223.364C617.901 223.311 617.5 223.09 617.222 222.746C616.944 222.403 616.81 221.964 616.85 221.524L616.93 210.094Z" fill="#5AE5BA"/>
<path d="M637.34 221.694L636.75 210.164C636.766 209.722 636.616 209.29 636.329 208.953C636.042 208.616 635.639 208.399 635.2 208.344H636.26C636.706 208.394 637.117 208.61 637.412 208.949C637.706 209.288 637.863 209.725 637.85 210.174L638.44 221.694C638.471 221.905 638.459 222.121 638.405 222.327C638.35 222.534 638.255 222.727 638.124 222.896C637.994 223.065 637.83 223.206 637.644 223.311C637.458 223.415 637.252 223.481 637.04 223.504H635.94C636.152 223.479 636.356 223.413 636.542 223.308C636.728 223.203 636.89 223.062 637.021 222.894C637.151 222.725 637.247 222.532 637.302 222.326C637.356 222.12 637.369 221.905 637.34 221.694Z" fill="#FF9D39"/>
<path d="M572.15 234.954C572.15 235.954 572.67 236.784 573.32 236.794L607.91 237.014C608.341 236.961 608.734 236.743 609.007 236.405C609.279 236.067 609.41 235.636 609.37 235.204L609.7 184.984C609.7 183.984 609.18 183.154 608.53 183.144L573.67 182.924C573.02 182.924 572.48 183.734 572.48 184.734L572.15 234.954Z" fill="#EAE5E1"/>
<path d="M604.35 250.504C604.35 252.498 605.966 254.114 607.96 254.114C609.954 254.114 611.57 252.498 611.57 250.504V246.084C611.57 244.09 609.954 242.474 607.96 242.474C605.966 242.474 604.35 244.09 604.35 246.084V250.504Z" stroke="#FF9D39" stroke-miterlimit="10"/>
<path d="M661.44 249.114C667.71 238.944 681.97 237.704 688.71 247.754C689.221 248.541 689.943 249.169 690.793 249.565C691.644 249.961 692.589 250.11 693.52 249.994C696.058 249.723 698.625 249.998 701.048 250.8C703.471 251.602 705.695 252.913 707.57 254.644C708.238 255.25 709.077 255.634 709.972 255.745C710.867 255.856 711.774 255.688 712.57 255.264C715.076 253.915 717.99 253.531 720.76 254.184C721.539 254.381 722.36 254.319 723.1 254.007C723.84 253.694 724.458 253.149 724.86 252.454C729.47 244.194 740.65 242.924 746.08 250.514C746.566 251.2 747.224 251.745 747.987 252.097C748.751 252.448 749.593 252.592 750.43 252.514C756.63 251.984 761.53 255.514 765.43 261.314H634.56C640.83 256.014 647.4 252.404 654.64 252.744C655.996 252.81 657.344 252.507 658.541 251.868C659.739 251.229 660.74 250.277 661.44 249.114Z" fill="#D3EAE3"/>
<path d="M677.83 261.194C677.83 261.194 682.89 256.664 693.14 257.194C694.49 257.235 695.815 256.82 696.9 256.014C699.265 254.211 702.233 253.384 705.19 253.704C705.842 253.769 706.499 253.655 707.09 253.375C707.682 253.095 708.187 252.659 708.55 252.114C713.16 245.414 722.86 246.434 726.88 253.554C727.302 254.239 727.909 254.79 728.631 255.143C729.353 255.497 730.161 255.64 730.96 255.554C735.85 255.244 740.28 257.664 744.51 261.234L677.83 261.194Z" fill="#D3EAE3"/>
<path d="M879.14 249.114C885.41 238.944 899.67 237.704 906.41 247.754C906.921 248.541 907.643 249.169 908.493 249.565C909.344 249.961 910.289 250.11 911.22 249.994C913.747 249.725 916.302 249.997 918.716 250.792C921.13 251.587 923.347 252.886 925.22 254.604C925.887 255.211 926.726 255.596 927.622 255.707C928.517 255.818 929.424 255.649 930.22 255.224C932.726 253.875 935.64 253.491 938.41 254.144C939.189 254.341 940.01 254.279 940.75 253.967C941.49 253.654 942.108 253.109 942.51 252.414C947.12 244.154 958.3 242.884 963.73 250.474C964.216 251.16 964.874 251.705 965.637 252.057C966.401 252.408 967.243 252.552 968.08 252.474C974.28 251.944 979.18 255.474 983.08 261.274H852.26C858.53 255.974 865.1 252.364 872.34 252.704C873.692 252.774 875.037 252.477 876.234 251.845C877.431 251.213 878.435 250.27 879.14 249.114Z" fill="#D3EAE3"/>
<path d="M895.53 261.194C895.53 261.194 900.59 256.664 910.84 257.194C912.19 257.235 913.515 256.82 914.6 256.014C916.965 254.211 919.933 253.384 922.89 253.704C923.542 253.769 924.199 253.655 924.79 253.375C925.382 253.095 925.887 252.659 926.25 252.114C930.86 245.414 940.56 246.434 944.58 253.554C945.002 254.239 945.609 254.79 946.331 255.143C947.053 255.497 947.86 255.64 948.66 255.554C953.55 255.244 957.98 257.664 962.21 261.234L895.53 261.194Z" fill="#D3EAE3"/>
<path d="M1021.56 256.024L1038.17 250.434C1038.04 250.004 1037.89 249.584 1037.74 249.164L1029.17 249.944L1036.81 246.814C1035.22 243.211 1033.04 239.896 1030.37 237.004L1018.52 244.294L1028.82 235.424C1028.46 235.071 1028.09 234.737 1027.71 234.424L1020.47 238.424L1025.76 232.804C1022.08 229.995 1017.89 227.929 1013.42 226.724L1008.3 234.294L1010.13 226.014C1009.62 225.924 1009.13 225.844 1008.58 225.784L1004.13 236.474L1005.34 225.474H1004.13C999.268 225.48 994.459 226.485 990 228.424C989.47 232.624 989 236.514 989 236.904C989 237.294 988.23 233.604 987.44 229.664C987.05 229.864 986.67 230.084 986.28 230.304L987.05 243.354L983.78 231.904C980.025 234.518 976.807 237.828 974.3 241.654L976.18 249.944L972.75 244.244C972.032 245.572 971.4 246.945 970.86 248.354L977.7 256.024L969.82 251.474C968.921 254.639 968.466 257.914 968.47 261.204H1039.87C1039.86 258.421 1039.52 255.65 1038.87 252.944L1021.56 256.024Z" fill="#069550"/>
<path d="M307.55 220.444H288.61V247.964H307.55V220.444Z" fill="#C78B5B"/>
<path d="M313.8 220.444H295.06V247.964H313.8V220.444Z" fill="#E5BE84"/>
<path d="M307.64 220.444H303.24V226.114H307.64V220.444Z" fill="#EAD1B7"/>
<path d="M307.64 242.294H303.24V247.964H307.64V242.294Z" fill="#EAD1B7"/>
<path d="M301.93 243.444H296.13V246.954H301.93V243.444Z" fill="#F7EEE5"/>
<path d="M297.02 243.934H296.4V246.454H297.02V243.934Z" fill="#444248"/>
<path d="M297.61 243.934H297.39V246.454H297.61V243.934Z" fill="#444248"/>
<path d="M299 243.934H298.49V246.454H299V243.934Z" fill="#444248"/>
<path d="M298.16 243.934H297.85V246.454H298.16V243.934Z" fill="#444248"/>
<path d="M299.58 243.934H299.37V246.454H299.58V243.934Z" fill="#444248"/>
<path d="M300.78 243.934H300.36V246.454H300.78V243.934Z" fill="#444248"/>
<path d="M301.13 243.934H300.92V246.454H301.13V243.934Z" fill="#444248"/>
<path d="M300.17 243.934H299.88V246.454H300.17V243.934Z" fill="#444248"/>
<path d="M301.66 243.934H301.35V246.454H301.66V243.934Z" fill="#444248"/>
<g style="mix-blend-mode:multiply" opacity="0.32">
<path d="M313.81 230.234H297.27V247.964H313.81V230.234Z" fill="#C78B5B"/>
</g>
<path d="M317.11 231.634H301.81V246.584H317.11V231.634Z" fill="#C78B5B"/>
<path d="M321.35 231.634H306.18V246.584H321.35V231.634Z" fill="#E5BE84"/>
<path d="M314.97 231.634H312.55V235.484H314.97V231.634Z" fill="#EAD1B7"/>
<path d="M314.97 242.734H312.55V246.584H314.97V242.734Z" fill="#EAD1B7"/>
<path d="M320.27 243.524H316.34V245.904H320.27V243.524Z" fill="#F7EEE5"/>
<path d="M316.94 243.854H316.52V245.564H316.94V243.854Z" fill="#444248"/>
<path d="M317.34 243.854H317.19V245.564H317.34V243.854Z" fill="#444248"/>
<path d="M318.27 243.854H317.93V245.564H318.27V243.854Z" fill="#444248"/>
<path d="M317.71 243.854H317.5V245.564H317.71V243.854Z" fill="#444248"/>
<path d="M318.67 243.854H318.53V245.564H318.67V243.854Z" fill="#444248"/>
<path d="M319.48 243.854H319.2V245.564H319.48V243.854Z" fill="#444248"/>
<path d="M319.72 243.854H319.58V245.564H319.72V243.854Z" fill="#444248"/>
<path d="M319.07 243.854H318.88V245.564H319.07V243.854Z" fill="#444248"/>
<path d="M320.08 243.854H319.87V245.564H320.08V243.854Z" fill="#444248"/>
<path d="M322.07 246.414H306.77V261.364H322.07V246.414Z" fill="#C78B5B"/>
<path d="M326.31 246.414H311.14V261.364H326.31V246.414Z" fill="#E5BE84"/>
<path d="M320.76 246.414H316.69V250.264H320.76V246.414Z" fill="#EAD1B7"/>
<path d="M320.76 257.514H316.69V261.364H320.76V257.514Z" fill="#EAD1B7"/>
<path d="M315.8 258.294H311.87V260.674H315.8V258.294Z" fill="#F7EEE5"/>
<path d="M312.47 258.634H312.05V260.344H312.47V258.634Z" fill="#444248"/>
<path d="M312.87 258.634H312.72V260.344H312.87V258.634Z" fill="#444248"/>
<path d="M313.8 258.634H313.46V260.344H313.8V258.634Z" fill="#444248"/>
<path d="M313.24 258.634H313.03V260.344H313.24V258.634Z" fill="#444248"/>
<path d="M314.2 258.634H314.06V260.344H314.2V258.634Z" fill="#444248"/>
<path d="M315.01 258.634H314.73V260.344H315.01V258.634Z" fill="#444248"/>
<path d="M315.25 258.634H315.11V260.344H315.25V258.634Z" fill="#444248"/>
<path d="M314.6 258.634H314.41V260.344H314.6V258.634Z" fill="#444248"/>
<path d="M315.61 258.634H315.4V260.344H315.61V258.634Z" fill="#444248"/>
<path d="M306.46 205.494H291.16V220.444H306.46V205.494Z" fill="#C78B5B"/>
<path d="M310.7 205.494H295.53V220.444H310.7V205.494Z" fill="#E5BE84"/>
<path d="M305.15 205.494H301.08V209.344H305.15V205.494Z" fill="#EAD1B7"/>
<path d="M300.19 217.374H296.26V219.754H300.19V217.374Z" fill="#F7EEE5"/>
<path d="M296.86 217.714H296.44V219.424H296.86V217.714Z" fill="#444248"/>
<path d="M297.26 217.714H297.11V219.424H297.26V217.714Z" fill="#444248"/>
<path d="M298.19 217.714H297.85V219.424H298.19V217.714Z" fill="#444248"/>
<path d="M297.63 217.714H297.42V219.424H297.63V217.714Z" fill="#444248"/>
<path d="M298.59 217.714H298.45V219.424H298.59V217.714Z" fill="#444248"/>
<path d="M299.4 217.714H299.12V221.424H299.4V217.714Z" fill="#444248"/>
<path d="M299.64 217.714H299.5V219.424H299.64V217.714Z" fill="#444248"/>
<path d="M298.99 217.714H298.8V219.424H298.99V217.714Z" fill="#444248"/>
<path d="M300 217.714H299.79V219.424H300V217.714Z" fill="#444248"/>
<path d="M303.15 238.104H279.34V261.364H303.15V238.104Z" fill="#C78B5B"/>
<path d="M309.74 238.104H286.14V261.364H309.74V238.104Z" fill="#E5BE84"/>
<path d="M301.1 238.104H294.77V244.094H301.1V238.104Z" fill="#EAD1B7"/>
<path d="M301.1 255.374H294.77V261.364H301.1V255.374Z" fill="#EAD1B7"/>
<path d="M293.39 256.594H287.27V260.294H293.39V256.594Z" fill="#F7EEE5"/>
<path d="M288.2 257.114H287.55V259.774H288.2V257.114Z" fill="#444248"/>
<path d="M288.82 257.114H288.59V259.774H288.82V257.114Z" fill="#444248"/>
<path d="M290.28 257.114H289.75V259.774H290.28V257.114Z" fill="#444248"/>
<path d="M289.4 257.114H289.08V259.774H289.4V257.114Z" fill="#444248"/>
<path d="M290.9 257.114H290.68V259.774H290.9V257.114Z" fill="#444248"/>
<path d="M292.17 257.114H291.73V259.774H292.17V257.114Z" fill="#444248"/>
<path d="M292.54 257.114H292.32V259.774H292.54V257.114Z" fill="#444248"/>
<path d="M291.53 257.114H291.23V259.774H291.53V257.114Z" fill="#444248"/>
<path d="M293.09 257.114H292.77V259.774H293.09V257.114Z" fill="#444248"/>
<path d="M1004.52 261.304C1004.52 261.304 1010.22 256.194 1021.78 256.744C1023.3 256.79 1024.79 256.322 1026.01 255.414C1028.68 253.387 1032.02 252.456 1035.35 252.814C1036.08 252.89 1036.83 252.763 1037.49 252.447C1038.16 252.132 1038.73 251.64 1039.14 251.024C1044.34 243.464 1055.28 244.624 1059.8 252.644C1060.28 253.413 1060.96 254.031 1061.78 254.429C1062.59 254.827 1063.5 254.988 1064.4 254.894C1069.91 254.554 1074.91 257.274 1079.67 261.304H1004.52Z" fill="#4DC27E"/>
<path d="M731.08 256.414C733.6 252.344 739.31 251.854 742.01 255.874C742.214 256.191 742.504 256.443 742.845 256.602C743.187 256.761 743.566 256.821 743.94 256.774C744.954 256.663 745.979 256.77 746.949 257.088C747.918 257.405 748.808 257.925 749.56 258.614C749.827 258.857 750.162 259.011 750.52 259.056C750.878 259.101 751.242 259.034 751.56 258.864C752.565 258.326 753.731 258.173 754.84 258.434C755.151 258.514 755.48 258.49 755.776 258.365C756.072 258.241 756.32 258.022 756.48 257.744C756.858 256.975 757.427 256.316 758.133 255.83C758.839 255.344 759.658 255.047 760.511 254.969C761.365 254.891 762.224 255.033 763.006 255.382C763.789 255.732 764.469 256.276 764.98 256.964C765.174 257.24 765.436 257.461 765.741 257.605C766.046 257.749 766.384 257.81 766.72 257.784C769.21 257.564 771.17 258.994 772.72 261.304H720.32C722.83 259.174 725.46 257.734 728.32 257.874C728.87 257.907 729.418 257.789 729.905 257.531C730.392 257.274 730.798 256.887 731.08 256.414Z" fill="#069550"/>
<path d="M1086.66 169.344H1085.8V169.274L1086.07 166.964C1086.07 166.946 1086.07 166.928 1086.08 166.912C1086.09 166.895 1086.1 166.881 1086.11 166.868C1086.12 166.856 1086.14 166.847 1086.16 166.841C1086.17 166.835 1086.19 166.833 1086.21 166.834C1086.26 166.844 1086.3 166.864 1086.34 166.894C1086.36 166.913 1086.38 166.936 1086.39 166.962C1086.4 166.988 1086.41 167.016 1086.41 167.044L1086.66 169.344Z" fill="#A2C5F9"/>
<path d="M1085.88 168.824L1086.1 166.964C1086.1 166.946 1086.1 166.928 1086.11 166.912C1086.12 166.895 1086.13 166.881 1086.14 166.868C1086.15 166.856 1086.17 166.847 1086.19 166.841C1086.2 166.835 1086.22 166.833 1086.24 166.834C1086.28 166.878 1086.3 166.935 1086.3 166.994V168.324C1086.31 168.445 1086.27 168.564 1086.19 168.656C1086.11 168.749 1086 168.809 1085.88 168.824Z" fill="#AFCDFB"/>
<path d="M1087.21 179.644H1085.54V253.514H1087.21V179.644Z" fill="#A2C5F9"/>
<path d="M1086.31 179.644H1085.54V253.514H1086.31V179.644Z" fill="#AFCDFB"/>
<path d="M1089.05 241.724H1083.72V261.274H1089.05V241.724Z" fill="#A2C5F9"/>
<path d="M1086.9 241.724H1083.72V261.274H1086.9V241.724Z" fill="#AFCDFB"/>
<path d="M1089.29 170.464C1089.29 171.374 1087.92 172.114 1086.23 172.114H1085.85C1084.34 172.004 1083.17 171.314 1083.17 170.474C1083.17 169.634 1084.34 168.934 1085.85 168.834H1086.23C1087.92 168.804 1089.29 169.544 1089.29 170.464Z" fill="#A2C5F9"/>
<path d="M1087.71 170.464C1087.71 171.194 1086.94 171.824 1085.85 172.104C1084.34 171.994 1083.17 171.304 1083.17 170.464C1083.17 169.624 1084.34 168.924 1085.85 168.824C1086.94 169.094 1087.71 169.724 1087.71 170.464Z" fill="#AFCDFB"/>
<path d="M1089.04 181.104H1083.71L1081.83 172.054H1090.63L1089.04 181.104Z" fill="#AFCDFB"/>
<path d="M1091.11 171.374H1081.36V172.244H1091.11V171.374Z" fill="#A2C5F9"/>
<path d="M1087.49 171.374H1081.36V172.244H1087.49V171.374Z" fill="#AFCDFB"/>
<path d="M1084.59 241.724H1087.99L1087.49 240.214C1087.47 240.149 1087.43 240.093 1087.37 240.053C1087.32 240.013 1087.25 239.993 1087.18 239.994H1085.59C1085.51 239.994 1085.42 240.019 1085.35 240.065C1085.28 240.111 1085.22 240.177 1085.19 240.254L1084.59 241.724Z" fill="#A2C5F9"/>
<path d="M1082.46 172.494H1089.97L1088.51 180.624H1084.19L1082.46 172.494Z" fill="#C7DCF9"/>
<path d="M1083.37 170.554C1083.37 170.554 1083.94 169.304 1085.07 169.344C1085.07 169.344 1084.35 169.984 1084.42 170.554C1084.49 171.124 1083.37 170.554 1083.37 170.554Z" fill="#C7DCF9"/>
<path d="M1090.48 171.374H1081.98L1082.67 170.384H1089.82L1090.48 171.374Z" fill="#A2C5F9"/>
<path d="M1088.39 171.374H1081.98L1082.67 170.384H1087.73L1088.39 171.374Z" fill="#AFCDFB"/>
<path d="M1082.96 172.774H1084.68L1085.18 180.374H1084.68L1082.96 172.774Z" fill="#D2E4F9"/>
<path d="M877.52 259.444L877.19 233.724C877.19 233.724 887.31 230.594 888.28 215.844L887.01 216.394C887.01 216.394 885.63 228.824 877.19 230.144V219.964H874.78L874.61 226.844C872.452 226.257 870.506 225.065 869.004 223.408C867.501 221.751 866.504 219.699 866.13 217.494L865.21 216.614C865.21 216.614 864.43 225.124 874.56 229.124L873.84 259.444H877.52Z" fill="#025773"/>
<path d="M885.31 218.554C889.551 216.675 893.512 214.219 897.08 211.254C897.8 210.654 898.5 210.044 899.19 209.414C900.885 207.931 902.309 206.165 903.4 204.194C905.78 199.664 905.55 194.114 903.82 189.304C902.302 185.245 900.107 181.471 897.33 178.144C894.5 174.654 891.63 171.144 888.01 168.404C883.7 165.174 878.29 163.204 873.01 164.764C867.73 166.324 863.16 170.954 859.83 175.174C856.27 179.684 853.1 184.974 852.44 190.774C851.37 200.204 856.63 208.914 862.59 215.774C868.55 222.634 877.43 221.954 885.31 218.554Z" fill="#006F7A"/>
<path d="M874.1 258.244L883.91 254.944C883.83 254.694 883.75 254.444 883.66 254.194L878.59 254.654L883.11 252.804C882.166 250.681 880.882 248.725 879.31 247.014L872.31 251.324L878.39 246.084C878.18 245.874 877.96 245.674 877.74 245.484L873.46 247.854L876.59 244.534C874.411 242.877 871.932 241.658 869.29 240.944L866.29 245.414L867.37 240.524L866.45 240.384L863.82 246.704L864.54 240.234H863.82C860.944 240.232 858.099 240.821 855.46 241.964C855.15 244.434 854.87 246.734 854.87 246.964C854.87 247.194 854.41 245.014 853.95 242.684L853.26 243.064L853.71 250.774L851.78 244.014C849.568 245.561 847.668 247.512 846.18 249.764L847.29 254.664L845.29 251.294C844.868 252.081 844.494 252.892 844.17 253.724L848.17 258.254L843.52 255.564C842.988 257.434 842.719 259.37 842.72 261.314H884.88C884.88 259.671 884.688 258.033 884.31 256.434L874.1 258.244Z" fill="#069550"/>
<path d="M792.42 261.304C792.42 261.304 797.08 257.124 806.51 257.584C807.754 257.623 808.973 257.239 809.97 256.494C812.145 254.838 814.872 254.079 817.59 254.374C818.191 254.434 818.796 254.331 819.342 254.073C819.888 253.816 820.354 253.416 820.69 252.914C824.93 246.744 833.86 247.684 837.55 254.234C837.94 254.864 838.499 255.371 839.165 255.696C839.83 256.022 840.574 256.153 841.31 256.074C845.81 255.794 849.88 258.014 853.77 261.304H792.42Z" fill="#4DC27E"/>
<path d="M882.49 254.274C886.11 248.414 894.33 247.694 898.22 253.484C898.515 253.937 898.931 254.298 899.42 254.528C899.91 254.757 900.453 254.846 900.99 254.784C902.451 254.624 903.929 254.778 905.326 255.235C906.723 255.692 908.006 256.442 909.09 257.434C909.474 257.784 909.957 258.006 910.473 258.07C910.989 258.135 911.511 258.038 911.97 257.794C913.416 257.021 915.094 256.801 916.69 257.174C917.139 257.286 917.611 257.249 918.037 257.069C918.463 256.888 918.818 256.574 919.05 256.174C921.71 251.414 928.16 250.674 931.29 255.054C931.569 255.453 931.948 255.771 932.388 255.978C932.828 256.185 933.315 256.273 933.8 256.234C937.38 255.924 940.2 257.974 942.47 261.304H867C870.62 258.244 874.4 256.164 878.58 256.364C879.36 256.4 880.134 256.225 880.823 255.857C881.511 255.49 882.087 254.942 882.49 254.274Z" fill="#069550"/>
<path d="M892 261.244C892 261.244 894.91 258.624 900.83 258.914C901.607 258.933 902.368 258.69 902.99 258.224C904.357 257.192 906.067 256.72 907.77 256.904C908.146 256.941 908.526 256.874 908.867 256.712C909.209 256.55 909.5 256.299 909.71 255.984C912.37 252.114 917.97 252.704 920.28 256.814C920.524 257.207 920.874 257.524 921.289 257.727C921.705 257.931 922.17 258.013 922.63 257.964C925.45 257.784 928.01 259.184 930.45 261.244H892Z" fill="#4DC27E"/>
<path d="M844.1 260.764L844.36 239.764C844.36 239.764 836.12 237.204 835.36 225.184L836.36 225.634C836.36 225.634 837.49 235.774 844.36 236.854V228.544H846.36L846.49 234.154C848.251 233.679 849.839 232.708 851.066 231.357C852.292 230.007 853.106 228.333 853.41 226.534L854.16 225.814C854.16 225.814 854.79 232.754 846.54 236.014L847.13 260.734L844.1 260.764Z" fill="#025773"/>
<path d="M837.75 227.424C834.289 225.896 831.058 223.893 828.15 221.474C827.56 220.994 826.99 220.474 826.43 219.974C825.049 218.767 823.888 217.329 823 215.724C821.06 212.034 821.25 207.504 822.65 203.584C823.893 200.278 825.685 197.204 827.95 194.494C830.147 191.545 832.699 188.878 835.55 186.554C839.06 183.914 843.47 182.304 847.81 183.554C852.15 184.804 855.81 188.554 858.55 192.034C861.45 195.714 864.04 200.034 864.55 204.754C865.42 212.434 861.14 219.534 856.28 225.124C851.42 230.714 844.17 230.194 837.75 227.424Z" fill="#069550"/>
<path d="M687.19 261.284L687.36 247.654C687.36 247.654 682 245.994 681.49 238.174L682.16 238.464C682.16 238.464 682.89 245.054 687.36 245.754V240.364H688.64L688.72 244.004C689.871 243.691 690.908 243.053 691.706 242.166C692.504 241.279 693.029 240.182 693.22 239.004L693.71 238.534C693.71 238.534 694.12 243.044 688.71 245.164L689.1 261.234L687.19 261.284Z" fill="#D3EAE3"/>
<path d="M683.06 239.644C680.813 238.646 678.713 237.343 676.82 235.774C676.44 235.454 676.07 235.134 675.71 234.774C674.811 233.988 674.056 233.05 673.48 232.004C672.908 230.773 672.593 229.439 672.554 228.083C672.514 226.726 672.751 225.376 673.25 224.114C674.057 221.965 675.22 219.967 676.69 218.204C678.121 216.29 679.78 214.557 681.63 213.044C683.92 211.324 686.78 210.284 689.63 211.114C692.48 211.944 694.85 214.394 696.63 216.624C698.674 218.967 700.031 221.829 700.55 224.894C701.12 229.894 698.33 234.504 695.17 238.134C692.01 241.764 687.24 241.414 683.06 239.644Z" fill="#D3EAE3"/>
<path d="M930.05 261.184L929.88 247.424C929.88 247.424 935.29 245.744 935.82 237.854L935.14 238.144C935.14 238.144 934.39 244.804 929.88 245.504V240.054H928.6L928.52 243.734C927.363 243.422 926.32 242.786 925.513 241.9C924.707 241.014 924.171 239.915 923.97 238.734L923.48 238.264C923.48 238.264 923.07 242.814 928.48 244.954L928.09 261.184H930.05Z" fill="#D3EAE3"/>
<path d="M934.22 239.304C936.49 238.297 938.61 236.981 940.52 235.394C940.91 235.074 941.28 234.744 941.65 234.394C942.556 233.595 943.32 232.648 943.91 231.594C944.491 230.346 944.811 228.993 944.849 227.617C944.887 226.241 944.642 224.872 944.13 223.594C943.317 221.414 942.144 219.386 940.66 217.594C939.206 215.665 937.528 213.916 935.66 212.384C933.35 210.654 930.46 209.604 927.66 210.434C924.86 211.264 922.39 213.754 920.66 216.004C918.586 218.368 917.202 221.256 916.66 224.354C916.09 229.354 918.9 234.064 922.09 237.724C925.28 241.384 930 241.114 934.22 239.304Z" fill="#D3EAE3"/>
<path d="M731 261.304L730.82 247.054C730.82 247.054 736.43 245.324 736.97 237.154L736.26 237.454C736.26 237.454 735.49 244.344 730.82 245.074V239.434H729.48L729.39 243.244C728.194 242.92 727.115 242.259 726.283 241.341C725.45 240.423 724.897 239.286 724.69 238.064L724.18 237.584C724.18 237.584 723.75 242.294 729.36 244.504L728.96 261.304H731Z" fill="#025773"/>
<path d="M735.27 238.644C737.616 237.615 739.81 236.269 741.79 234.644C742.19 234.311 742.58 233.977 742.96 233.644C743.895 232.82 744.683 231.842 745.29 230.754C745.891 229.468 746.222 228.072 746.261 226.653C746.301 225.234 746.048 223.822 745.52 222.504C744.678 220.257 743.465 218.168 741.93 216.324C740.433 214.324 738.696 212.513 736.76 210.934C734.38 209.134 731.38 208.054 728.43 208.934C725.48 209.814 722.98 212.364 721.13 214.694C719.13 217.194 717.41 220.124 717.04 223.344C716.45 228.564 719.36 233.344 722.66 237.184C725.96 241.024 730.91 240.534 735.27 238.644Z" fill="#4DC27E"/>
<path d="M772.15 259.774L777.05 258.124C777.05 257.994 776.97 257.874 776.92 257.754L774.39 257.984L776.65 257.054C776.176 255.992 775.535 255.013 774.75 254.154L771.25 256.314L774.25 253.694L773.92 253.394L771.78 254.584L773.35 252.924C772.262 252.093 771.022 251.482 769.7 251.124L768.19 253.364L768.73 250.914L768.27 250.844L767 254.004L767.36 250.774H767C765.563 250.773 764.14 251.066 762.82 251.634C762.66 252.874 762.52 254.024 762.52 254.144C762.52 254.264 762.29 253.144 762.06 252.004L761.72 252.194L761.94 256.044L761 252.644C759.89 253.415 758.94 254.393 758.2 255.524L758.76 257.974L757.76 256.284C757.551 256.68 757.364 257.087 757.2 257.504L759.2 259.764L756.88 258.424C756.614 259.357 756.479 260.323 756.48 261.294H777.56C777.561 260.472 777.464 259.653 777.27 258.854L772.15 259.774Z" fill="#069550"/>
</g>
</g>
<defs>
<clipPath id="clip0_162:6233">
<rect width="1440" height="260.66" fill="white" transform="translate(0 0.644043)"/>
</clipPath>
<clipPath id="clip1_162:6233">
<rect width="1440" height="260.66" fill="white" transform="translate(0 0.644043)"/>
</clipPath>
</defs>
</svg>
